<?xml version="1.0" encoding="UTF-8"?>
<svg version="1.1" xmlns="http://www.w3.org/2000/svg" width="500" height="500">
<path d="M0 0 C13.1208052 11.87766259 23.98303684 25.08891303 32.70068359 40.53955078 C33.30654297 41.60302734 33.91240234 42.66650391 34.53662109 43.76220703 C41.73118822 57.19311292 46.27549894 72.36764834 47.70068359 87.53955078 C47.83345703 88.81958984 47.96623047 90.09962891 48.10302734 91.41845703 C52.03161975 136.06484204 37.21777662 177.90976815 8.94482422 212.08154297 C6.37415832 215.09410513 3.59861385 217.84644806 0.70068359 220.53955078 C-0.20681641 221.44705078 -1.11431641 222.35455078 -2.04931641 223.28955078 C-3.79931641 225.03955078 -5.54931641 226.78955078 -7.29931641 228.53955078 C-5.78435533 232.93293791 -2.39628301 234.92187812 1.32568359 237.35205078 C1.99446533 237.79000977 2.66324707 238.22796875 3.35229492 238.67919922 C16.47085128 247.02834454 30.82230632 251.37787353 45.70068359 255.53955078 C41.79953154 259.66707529 37.58993416 263.00232558 33.01318359 266.35205078 C31.57741908 267.41598368 30.14252118 268.48108705 28.70849609 269.54736328 C28.01788086 270.06073242 27.32726562 270.57410156 26.61572266 271.10302734 C22.56042373 274.14501854 18.62651509 277.33345506 14.70068359 280.53955078 C13.84474609 281.23306641 12.98880859 281.92658203 12.10693359 282.64111328 C6.52652739 287.17920224 1.0182308 291.79578434 -4.46264648 296.45288086 C-8.75240644 300.09235004 -13.09141542 303.66575013 -17.47509766 307.19189453 C-19.57221793 308.93514388 -21.58716123 310.70013991 -23.59228516 312.54345703 C-24.15689453 313.05134766 -24.72150391 313.55923828 -25.30322266 314.08251953 C-26.39479556 315.06772106 -27.4727304 316.06833188 -28.53369141 317.08642578 C-31.50187234 319.73577398 -33.22911924 320.53234928 -37.22119141 320.94189453 C-54.51526656 319.7697291 -69.5192341 311.86394532 -82.29931641 300.53955078 C-83.14107422 299.80607422 -83.98283203 299.07259766 -84.85009766 298.31689453 C-88.84675432 294.7811573 -92.74724721 291.15879383 -96.54931641 287.41455078 C-97.20158203 286.77388672 -97.85384766 286.13322266 -98.52587891 285.47314453 C-100.29931641 283.53955078 -100.29931641 283.53955078 -101.63525391 281.44970703 C-103.06850146 279.25640396 -104.06726497 277.93346242 -106.29931641 276.53955078 C-111.07530489 276.16437962 -115.57703069 276.8456639 -120.29931641 277.53955078 C-129.93903526 278.88272316 -139.64894426 278.78292888 -149.36181641 278.78955078 C-150.69448547 278.7905629 -150.69448547 278.7905629 -152.05407715 278.79159546 C-179.2656914 278.75884357 -215.08557201 278.14487603 -236.29931641 258.53955078 C-241.08169995 253.72200265 -243.56943923 249.00339673 -243.79931641 242.16455078 C-243.06078082 213.11548424 -214.21931701 179.61919348 -198.48681641 156.47705078 C-197.19021186 154.56389721 -195.89398625 152.65048675 -194.59814453 150.73681641 C-192.77292863 148.04147385 -190.94725398 145.34646136 -189.11845398 142.65354919 C-185.48387548 137.30079287 -181.87957713 131.92879173 -178.29931641 126.53955078 C-179.04922852 126.68030029 -179.79914063 126.8210498 -180.57177734 126.96606445 C-189.58486014 128.52054035 -198.42918396 128.9000373 -207.54931641 128.85205078 C-208.66114792 128.84881805 -208.66114792 128.84881805 -209.79544067 128.84552002 C-238.89286477 128.71073578 -280.5976898 126.6522397 -304.29931641 107.53955078 C-308.7577732 102.67577973 -310.74253694 98.01922405 -310.63525391 91.36767578 C-307.1224399 61.79468345 -284.11266412 34.16714566 -264.29931641 13.53955078 C-263.44337891 12.64236328 -262.58744141 11.74517578 -261.70556641 10.82080078 C-195.41560999 -57.14738238 -84.77353575 -69.42897415 0 0 Z M-36.42431641 224.97705078 C-44.0293153 230.52827478 -51.95193435 235.19748589 -60.29931641 239.53955078 C-60.96801758 239.88759766 -61.63671875 240.23564453 -62.32568359 240.59423828 C-77.46080769 248.34761914 -93.68296149 253.92729971 -110.29931641 257.53955078 C-106.6743895 265.34977977 -100.36811497 271.72649369 -94.60009766 278.00830078 C-93.10935912 279.64836626 -91.64614007 281.3140488 -90.21728516 283.00830078 C-78.12464415 297.18742716 -60.97942249 310.17545626 -42.16162109 312.8425293 C-37.74980143 313.16107731 -35.03845365 312.7960669 -31.52587891 310.01220703 C-30.30544977 308.89688981 -29.10541615 307.75893591 -27.92431641 306.60205078 C-26.6181598 305.39639286 -25.31086161 304.19197054 -24.00244141 302.98876953 C-23.37144531 302.39628418 -22.74044922 301.80379883 -22.09033203 301.19335938 C-19.70414716 298.98997656 -17.20670225 296.94712363 -14.67431641 294.91455078 C-11.28480515 292.17089913 -7.93511676 289.3908171 -4.61962891 286.55883789 C5.4917401 277.92456331 15.85510138 269.67460128 26.78662109 262.09814453 C27.41826172 261.58380859 28.04990234 261.06947266 28.70068359 260.53955078 C28.70068359 259.87955078 28.70068359 259.21955078 28.70068359 258.53955078 C27.49154297 258.05486328 26.28240234 257.57017578 25.03662109 257.07080078 C7.53538101 249.9504357 -6.74549652 241.4595175 -20.79931641 228.72705078 C-21.3163916 228.25871826 -21.8334668 227.79038574 -22.36621094 227.30786133 C-24.7047141 225.15143236 -26.52352186 223.20324259 -28.29931641 220.53955078 C-31.60921711 220.53955078 -33.86039142 223.05419467 -36.42431641 224.97705078 Z " fill="#F1CD90" transform="translate(369.29931640625,124.46044921875)"/>
<path d="M0 0 C0.86547852 2.06176758 0.86547852 2.06176758 1 4 C0 6 0 6 -1 7 C-0.61149434 9.62241321 0.22055438 11.39631752 1.51953125 13.73046875 C5.37774474 22.25111437 3.25983577 31.98360443 0.08984375 40.421875 C-1.15555365 43.36797639 -2.44671843 46.20409317 -4 49 C-4.66 49 -5.32 49 -6 49 C-6.37125 50.08861328 -6.37125 50.08861328 -6.75 51.19921875 C-8.12427454 54.27845264 -9.74655929 56.31466039 -12 58.8125 C-12.70125 59.60269531 -13.4025 60.39289063 -14.125 61.20703125 C-16 63 -16 63 -18 63 C-18.19335938 63.55171875 -18.38671875 64.1034375 -18.5859375 64.671875 C-20.60630892 67.99823237 -23.538426 69.98123621 -26.625 72.25 C-27.23601562 72.70890625 -27.84703125 73.1678125 -28.4765625 73.640625 C-29.9790792 74.76751252 -31.48884409 75.88472437 -33 77 C-34.32 76.34 -35.64 75.68 -37 75 C-36.46011672 70.69635897 -35.01015587 68.28340624 -32.375 64.875 C-28.84489526 60.19982544 -25.67860943 55.41693157 -22.640625 50.41015625 C-21 48 -21 48 -18.99609375 46.08984375 C-16.48893632 43.46493333 -15.28830255 40.80822576 -13.8125 37.5 C-13.30332031 36.3759375 -12.79414063 35.251875 -12.26953125 34.09375 C-9.74789172 27.94870844 -8.85259683 21.44220951 -11 15 C-11.86625 15.020625 -12.7325 15.04125 -13.625 15.0625 C-16.86819614 15.00244081 -19.80743159 14.53209474 -23 14 C-27.95768866 13.36710358 -30.54919705 14.46077178 -34.38671875 17.421875 C-36.98911263 19.96755812 -38.40314746 22.74242082 -40 26 C-39.175 25.01 -38.35 24.02 -37.5 23 C-35.58250115 21.04580261 -34.53658958 20.09808627 -31.8203125 19.6015625 C-29.625 19.625 -29.625 19.625 -26 20 C-27.93096305 26.37217805 -32.4755548 30.78396813 -37.4375 35 C-47.00561153 43.14582468 -55.93866117 52.36872866 -64 62 C-64.89581419 63.04540445 -65.7930951 64.08955289 -66.69140625 65.1328125 C-69.28872427 68.14950236 -71.87736907 71.17346304 -74.46240234 74.20068359 C-75.45379386 75.3608226 -76.44622904 76.52007095 -77.43994141 77.67822266 C-83.99445371 85.31787344 -90.31739007 93.10444162 -96.48730469 101.05761719 C-98.11039835 103.14175747 -99.74583896 105.21580916 -101.3828125 107.2890625 C-102.56850494 108.79624866 -103.75339047 110.30406992 -104.9375 111.8125 C-105.52499023 112.56031738 -106.11248047 113.30813477 -106.71777344 114.07861328 C-109.7239348 117.94261431 -112.62197184 121.84698579 -115.3828125 125.890625 C-115.91914307 126.6746167 -116.45547363 127.4586084 -117.00805664 128.26635742 C-118.02094506 129.76254332 -119.02086754 131.26761521 -120.00561523 132.7824707 C-120.68539429 133.7892688 -120.68539429 133.7892688 -121.37890625 134.81640625 C-121.7663501 135.40881104 -122.15379395 136.00121582 -122.55297852 136.61157227 C-126.4936996 140.39272307 -133.92091154 139.16189548 -139.03125 139.16796875 C-140.51075134 139.17296135 -140.51075134 139.17296135 -142.0201416 139.17805481 C-144.11482275 139.18311567 -146.20951196 139.18546339 -148.30419922 139.18530273 C-151.4334141 139.18745422 -154.56225539 139.20552012 -157.69140625 139.22460938 C-175.43081791 139.27586588 -192.89263165 138.21044618 -210.3125 134.6875 C-211.953396 134.3615686 -211.953396 134.3615686 -213.62744141 134.02905273 C-226.72264752 131.34560886 -239.42226615 127.93245625 -251 121 C-251.93457031 120.48566406 -252.86914062 119.97132813 -253.83203125 119.44140625 C-256.75419064 116.15068621 -256.60963671 113.94383011 -256.38183594 109.65332031 C-255.77154151 105.41247644 -254.38048446 101.76453004 -252.625 97.875 C-252.26849365 97.06095703 -251.9119873 96.24691406 -251.54467773 95.40820312 C-245.78296403 82.66225586 -238.12456704 71.56609528 -229 61 C-227.77216797 59.49759766 -227.77216797 59.49759766 -226.51953125 57.96484375 C-215.44896597 44.43484467 -203.19871882 32.23032863 -189 22 C-188.41814941 21.57912109 -187.83629883 21.15824219 -187.23681641 20.72460938 C-161.10576646 2.05650126 -130.61552644 -9.75390715 -99 -15 C-97.84757813 -15.20496094 -96.69515625 -15.40992187 -95.5078125 -15.62109375 C-65.67109987 -20.19437423 -25.37547118 -18.78474595 0 0 Z " fill="#F1CD90" transform="translate(323,103)"/>
<path d="M0 0 C13.1208052 11.87766259 23.98303684 25.08891303 32.70068359 40.53955078 C33.30654297 41.60302734 33.91240234 42.66650391 34.53662109 43.76220703 C41.73118822 57.19311292 46.27549894 72.36764834 47.70068359 87.53955078 C47.83345703 88.81958984 47.96623047 90.09962891 48.10302734 91.41845703 C52.03161975 136.06484204 37.21777662 177.90976815 8.94482422 212.08154297 C6.37415832 215.09410513 3.59861385 217.84644806 0.70068359 220.53955078 C-0.20681641 221.44705078 -1.11431641 222.35455078 -2.04931641 223.28955078 C-3.79931641 225.03955078 -5.54931641 226.78955078 -7.29931641 228.53955078 C-5.78435533 232.93293791 -2.39628301 234.92187812 1.32568359 237.35205078 C1.99446533 237.79000977 2.66324707 238.22796875 3.35229492 238.67919922 C16.47085128 247.02834454 30.82230632 251.37787353 45.70068359 255.53955078 C41.79953154 259.66707529 37.58993416 263.00232558 33.01318359 266.35205078 C31.57741908 267.41598368 30.14252118 268.48108705 28.70849609 269.54736328 C28.01788086 270.06073242 27.32726562 270.57410156 26.61572266 271.10302734 C22.56042373 274.14501854 18.62651509 277.33345506 14.70068359 280.53955078 C13.84474609 281.23306641 12.98880859 281.92658203 12.10693359 282.64111328 C6.52652739 287.17920224 1.0182308 291.79578434 -4.46264648 296.45288086 C-8.75240644 300.09235004 -13.09141542 303.66575013 -17.47509766 307.19189453 C-19.57221793 308.93514388 -21.58716123 310.70013991 -23.59228516 312.54345703 C-24.15689453 313.05134766 -24.72150391 313.55923828 -25.30322266 314.08251953 C-26.39479556 315.06772106 -27.4727304 316.06833188 -28.53369141 317.08642578 C-31.50187234 319.73577398 -33.22911924 320.53234928 -37.22119141 320.94189453 C-54.51526656 319.7697291 -69.5192341 311.86394532 -82.29931641 300.53955078 C-83.14107422 299.80607422 -83.98283203 299.07259766 -84.85009766 298.31689453 C-88.84675432 294.7811573 -92.74724721 291.15879383 -96.54931641 287.41455078 C-97.20158203 286.77388672 -97.85384766 286.13322266 -98.52587891 285.47314453 C-100.29931641 283.53955078 -100.29931641 283.53955078 -101.63525391 281.44970703 C-103.06850146 279.25640396 -104.06726497 277.93346242 -106.29931641 276.53955078 C-111.07530489 276.16437962 -115.57703069 276.8456639 -120.29931641 277.53955078 C-129.93903526 278.88272316 -139.64894426 278.78292888 -149.36181641 278.78955078 C-150.69448547 278.7905629 -150.69448547 278.7905629 -152.05407715 278.79159546 C-179.2656914 278.75884357 -215.08557201 278.14487603 -236.29931641 258.53955078 C-241.08169995 253.72200265 -243.56943923 249.00339673 -243.79931641 242.16455078 C-243.06078082 213.11548424 -214.21931701 179.61919348 -198.48681641 156.47705078 C-197.19021186 154.56389721 -195.89398625 152.65048675 -194.59814453 150.73681641 C-192.77292863 148.04147385 -190.94725398 145.34646136 -189.11845398 142.65354919 C-185.48387548 137.30079287 -181.87957713 131.92879173 -178.29931641 126.53955078 C-179.04922852 126.68030029 -179.79914063 126.8210498 -180.57177734 126.96606445 C-189.58486014 128.52054035 -198.42918396 128.9000373 -207.54931641 128.85205078 C-208.66114792 128.84881805 -208.66114792 128.84881805 -209.79544067 128.84552002 C-238.89286477 128.71073578 -280.5976898 126.6522397 -304.29931641 107.53955078 C-308.7577732 102.67577973 -310.74253694 98.01922405 -310.63525391 91.36767578 C-307.1224399 61.79468345 -284.11266412 34.16714566 -264.29931641 13.53955078 C-263.44337891 12.64236328 -262.58744141 11.74517578 -261.70556641 10.82080078 C-195.41560999 -57.14738238 -84.77353575 -69.42897415 0 0 Z M-257.29931641 19.53955078 C-258.24806641 20.44705078 -259.19681641 21.35455078 -260.17431641 22.28955078 C-266.3757022 28.353128 -272.00127742 34.67536852 -277.29931641 41.53955078 C-277.94900391 42.37462158 -277.94900391 42.37462158 -278.61181641 43.2265625 C-296.46414784 66.10920631 -296.46414784 66.10920631 -303.09228516 93.32470703 C-301.3368738 98.22775256 -296.694306 100.26284055 -292.29931641 102.53955078 C-291.48849609 102.97783203 -290.67767578 103.41611328 -289.84228516 103.86767578 C-276.14241728 110.35816791 -259.98161135 112.95764364 -245.11181641 115.35205078 C-244.42015381 115.46371582 -243.72849121 115.57538086 -243.01586914 115.69042969 C-229.24128665 117.7256985 -215.38282603 117.72592582 -201.4921875 117.72485352 C-198.27802768 117.72706543 -195.06419821 117.74535711 -191.85009766 117.76416016 C-189.79150507 117.76709043 -187.73291087 117.76907767 -185.67431641 117.77001953 C-184.24454468 117.78079781 -184.24454468 117.78079781 -182.78588867 117.79179382 C-174.63512925 117.89236148 -174.63512925 117.89236148 -167.73876953 114.03759766 C-167.3565625 113.45042969 -166.97435547 112.86326172 -166.58056641 112.25830078 C-165.90586304 111.25657837 -165.90586304 111.25657837 -165.2175293 110.23461914 C-164.74951904 109.51024658 -164.28150879 108.78587402 -163.79931641 108.03955078 C-162.74975142 106.48618133 -161.69622089 104.93548541 -160.63916016 103.38720703 C-160.09372559 102.58557129 -159.54829102 101.78393555 -158.98632812 100.95800781 C-156.24438812 97.02723245 -153.31720822 93.24871319 -150.36181641 89.47705078 C-149.48432739 88.35713745 -149.48432739 88.35713745 -148.58911133 87.21459961 C-139.50787195 75.68153807 -130.22282829 64.32187209 -120.68505859 53.16357422 C-119.24202549 51.47240857 -117.80556823 49.77580459 -116.36962891 48.07861328 C-105.55976589 35.3355224 -94.18621679 23.2800257 -82.29931641 11.53955078 C-78.72614239 8.00252159 -75.3845372 4.50626323 -72.29931641 0.53955078 C-72.29931641 -0.12044922 -72.29931641 -0.78044922 -72.29931641 -1.46044922 C-77.54182835 -2.14955122 -77.54182835 -2.14955122 -82.16650391 -0.12451172 C-83.62133307 1.35816106 -84.96951202 2.94378552 -86.29931641 4.53955078 C-80.06995861 -5.67145839 -80.06995861 -5.67145839 -75.29931641 -7.46044922 C-71.71387541 -7.89948281 -69.99789046 -7.90165388 -66.92431641 -5.96044922 C-66.11994141 -5.21794922 -66.11994141 -5.21794922 -65.29931641 -4.46044922 C-65.11942357 5.07387123 -71.40186883 10.40549593 -77.61572266 16.99658203 C-80.96157471 20.41226057 -84.39013996 23.65088777 -88.04931641 26.72705078 C-96.95174078 34.38562344 -104.67922588 43.57076991 -112.00244141 52.71142578 C-114.64209838 55.96161566 -117.37163773 59.12423242 -120.11181641 62.28955078 C-131.16116554 75.11981147 -141.43493785 88.51209614 -151.50585938 102.11962891 C-153.10776259 104.28108612 -154.72026999 106.43415556 -156.33447266 108.58642578 C-167.54603442 123.68854604 -177.63706329 139.5969557 -187.88275146 155.36117554 C-189.31665916 157.56622025 -190.7535128 159.76932748 -192.19042969 161.97241211 C-197.58796266 170.2625329 -202.86241428 178.60149595 -207.92431641 187.10205078 C-208.56183838 188.1692334 -209.19936035 189.23641602 -209.85620117 190.3359375 C-214.45237662 198.05592556 -218.97293695 205.81130542 -223.28759766 213.69238281 C-223.99238422 214.97916252 -224.70101477 216.26384113 -225.41259766 217.546875 C-226.52871436 219.56096704 -227.63430385 221.58048536 -228.73681641 223.60205078 C-229.06738037 224.19775879 -229.39794434 224.7934668 -229.73852539 225.40722656 C-233.31379469 232.04447001 -234.90047201 238.08522135 -234.29931641 245.53955078 C-232.39998573 250.23201481 -228.60988262 253.93214108 -224.29931641 256.53955078 C-220.50423608 257.04342668 -220.50423608 257.04342668 -217.29931641 256.53955078 C-216.96931641 255.87955078 -216.63931641 255.21955078 -216.29931641 254.53955078 C-218.27931641 253.87955078 -220.25931641 253.21955078 -222.29931641 252.53955078 C-222.54931641 244.91455078 -222.54931641 244.91455078 -220.29931641 241.53955078 C-214.63266366 241.8630408 -209.22963126 242.4472394 -203.73681641 243.91455078 C-198.58173714 245.285654 -193.431341 246.28956047 -188.17431641 247.16455078 C-187.44656006 247.28749512 -186.71880371 247.41043945 -185.96899414 247.53710938 C-163.43429018 251.20067264 -140.76450056 250.12197387 -118.29931641 246.53955078 C-116.95861084 246.33869873 -116.95861084 246.33869873 -115.59082031 246.13378906 C-84.2222194 241.35992893 -53.47825087 228.22998226 -29.29931641 207.53955078 C-28.49107422 206.85376953 -27.68283203 206.16798828 -26.85009766 205.46142578 C-4.35800546 185.82939554 11.55154512 159.90188006 20.70068359 131.53955078 C21.08740234 130.34072266 21.47412109 129.14189453 21.87255859 127.90673828 C31.06826614 97.5875576 28.33470627 65.48662192 13.93774414 37.30688477 C7.5393975 25.34527805 -0.92289751 15.25744775 -10.29931641 5.53955078 C-11.27964844 4.481875 -11.27964844 4.481875 -12.27978516 3.40283203 C-36.87537891 -22.45138486 -72.61461002 -37.54188393 -108.01416016 -38.74169922 C-164.11484191 -39.85344465 -216.84926579 -19.15180198 -257.29931641 19.53955078 Z M-36.42431641 224.97705078 C-44.0293153 230.52827478 -51.95193435 235.19748589 -60.29931641 239.53955078 C-60.96801758 239.88759766 -61.63671875 240.23564453 -62.32568359 240.59423828 C-77.46080769 248.34761914 -93.68296149 253.92729971 -110.29931641 257.53955078 C-106.6743895 265.34977977 -100.36811497 271.72649369 -94.60009766 278.00830078 C-93.10935912 279.64836626 -91.64614007 281.3140488 -90.21728516 283.00830078 C-78.12464415 297.18742716 -60.97942249 310.17545626 -42.16162109 312.8425293 C-37.74980143 313.16107731 -35.03845365 312.7960669 -31.52587891 310.01220703 C-30.30544977 308.89688981 -29.10541615 307.75893591 -27.92431641 306.60205078 C-26.6181598 305.39639286 -25.31086161 304.19197054 -24.00244141 302.98876953 C-23.37144531 302.39628418 -22.74044922 301.80379883 -22.09033203 301.19335938 C-19.70414716 298.98997656 -17.20670225 296.94712363 -14.67431641 294.91455078 C-11.28480515 292.17089913 -7.93511676 289.3908171 -4.61962891 286.55883789 C5.4917401 277.92456331 15.85510138 269.67460128 26.78662109 262.09814453 C27.41826172 261.58380859 28.04990234 261.06947266 28.70068359 260.53955078 C28.70068359 259.87955078 28.70068359 259.21955078 28.70068359 258.53955078 C27.49154297 258.05486328 26.28240234 257.57017578 25.03662109 257.07080078 C7.53538101 249.9504357 -6.74549652 241.4595175 -20.79931641 228.72705078 C-21.3163916 228.25871826 -21.8334668 227.79038574 -22.36621094 227.30786133 C-24.7047141 225.15143236 -26.52352186 223.20324259 -28.29931641 220.53955078 C-31.60921711 220.53955078 -33.86039142 223.05419467 -36.42431641 224.97705078 Z " fill="#7E4D25" transform="translate(369.29931640625,124.46044921875)"/>
<path d="M0 0 C2.9375 1.5 2.9375 1.5 5 4 C5.62071545 9.89679677 3.70108648 12.80576263 0.0625 17.375 C-5.82030033 24.11687594 -12.02897266 30.54369435 -18.875 36.3125 C-27.38345461 43.6177388 -34.66600846 52.41896278 -41.66796875 61.13671875 C-44.32240991 64.39585673 -47.06196001 67.57209755 -49.8125 70.75 C-60.86171893 83.58039152 -71.13560804 96.97252725 -81.20654297 110.58007812 C-82.80844619 112.74153534 -84.42095358 114.89460478 -86.03515625 117.046875 C-97.24671801 132.14899526 -107.33774689 148.05740492 -117.58343506 163.82162476 C-119.01734276 166.02666947 -120.45419639 168.22977669 -121.89111328 170.43286133 C-127.28864625 178.72298212 -132.56309788 187.06194516 -137.625 195.5625 C-138.26252197 196.62968262 -138.90004395 197.69686523 -139.55688477 198.79638672 C-144.15306021 206.51637478 -148.67362054 214.27175464 -152.98828125 222.15283203 C-153.69306781 223.43961174 -154.40169837 224.72429035 -155.11328125 226.00732422 C-156.22939795 228.02141626 -157.33498744 230.04093458 -158.4375 232.0625 C-158.76806396 232.65820801 -159.09862793 233.25391602 -159.43920898 233.86767578 C-163.01447828 240.50491923 -164.6011556 246.54567057 -164 254 C-162.10527978 258.52627609 -159.04197898 261.27943723 -155 264 C-151.52008816 264.34799118 -149.14911479 264.57455739 -146 263 C-143.73472954 263.52089107 -141.48735064 264.119889 -139.25 264.75 C-122.06441257 269.18973922 -105.2533532 270.28251825 -87.5625 270.3125 C-86.27980225 270.31787781 -86.27980225 270.31787781 -84.97119141 270.32336426 C-74.13379706 270.34779153 -63.70217406 269.75493928 -53 268 C-51.16707397 267.7047644 -51.16707397 267.7047644 -49.29711914 267.40356445 C-46.52845903 266.95114169 -43.76333893 266.48371296 -41 266 C-40.47792969 266.72703125 -39.95585937 267.4540625 -39.41796875 268.203125 C-34.48349641 274.9437352 -29.26728736 281.18062958 -23.54296875 287.26171875 C-21.48929601 289.47312365 -19.58264322 291.7186327 -17.6875 294.0625 C-6.19634769 307.2580816 11.77605586 319.19381718 29.43359375 320.46875 C34.89621381 320.35801734 37.6083169 317.7519595 41.375 314.0625 C42.68115661 312.85684208 43.98845479 311.65241976 45.296875 310.44921875 C45.92787109 309.8567334 46.55886719 309.26424805 47.20898438 308.65380859 C49.59516925 306.45042578 52.09261416 304.40757285 54.625 302.375 C58.01464741 299.63123813 61.36438005 296.8509281 64.68017578 294.01904297 C71.45137695 288.23627918 78.38180782 282.69020707 85.41796875 277.23388672 C86.89134204 276.0847465 88.35244545 274.91992204 89.8125 273.75390625 C90.616875 273.11324219 91.42125 272.47257812 92.25 271.8125 C92.93578125 271.26207031 93.6215625 270.71164062 94.328125 270.14453125 C96 269 96 269 98 269 C98 268.34 98 267.68 98 267 C97.46375 266.87625 96.9275 266.7525 96.375 266.625 C80.64046813 262.48433372 65.99559372 253.4242348 53.6875 243 C53.11241699 242.51370117 52.53733398 242.02740234 51.94482422 241.52636719 C48.38847767 238.43326392 45.27639462 235.14766083 42.27270508 231.515625 C40.93009596 229.87223498 40.93009596 229.87223498 39 228 C40.0828125 227.4121875 40.0828125 227.4121875 41.1875 226.8125 C44.25583641 224.83512765 46.48552044 222.64020354 49 220 C50.66666667 218.33333333 52.33333333 216.66666667 54 215 C54.556875 214.401875 55.11375 213.80375 55.6875 213.1875 C57 212 57 212 59 212 C59.23976563 211.44441406 59.47953125 210.88882813 59.7265625 210.31640625 C61.28302531 207.48517176 63.22688586 205.35325943 65.375 202.9375 C89.83397235 174.28929731 104.26261154 135.98251417 104.125 98.4375 C104.12886719 97.37853516 104.13273437 96.31957031 104.13671875 95.22851562 C104.12874574 88.75841445 103.78659223 82.42264206 103 76 C110.72128261 83.72128261 109.41997366 103.11370264 109.4375 113.125 C109.03249439 157.19946233 90.27268363 196.80852544 59.3125 227.8125 C57.88017298 229.21364105 56.44474449 230.61166636 55 232 C55.86656226 234.00932891 55.86656226 234.00932891 57 236 C57.61875 236.144375 58.2375 236.28875 58.875 236.4375 C61 237 61 237 62.61328125 239.1953125 C65.72386218 242.85062692 69.22145058 244.98862936 73.3125 247.4375 C74.51410767 248.16090576 74.51410767 248.16090576 75.73999023 248.89892578 C88.07827963 256.15587982 101.28300081 260.20557917 115 264 C111.09884795 268.12752451 106.88925057 271.4627748 102.3125 274.8125 C100.87673549 275.8764329 99.44183758 276.94153627 98.0078125 278.0078125 C97.31719727 278.52118164 96.62658203 279.03455078 95.91503906 279.56347656 C91.85974013 282.60546775 87.92583149 285.79390428 84 289 C83.1440625 289.69351562 82.288125 290.38703125 81.40625 291.1015625 C75.82584379 295.63965146 70.31754721 300.25623355 64.83666992 304.91333008 C60.54690997 308.55279925 56.20790099 312.12619935 51.82421875 315.65234375 C49.72709848 317.3955931 47.71215517 319.16058913 45.70703125 321.00390625 C45.14242188 321.51179688 44.5778125 322.0196875 43.99609375 322.54296875 C42.90452085 323.52817028 41.82658601 324.5287811 40.765625 325.546875 C37.79744407 328.1962232 36.07019717 328.9927985 32.078125 329.40234375 C14.78404984 328.23017832 -0.2199177 320.32439454 -13 309 C-13.84175781 308.26652344 -14.68351563 307.53304688 -15.55078125 306.77734375 C-19.54743792 303.24160652 -23.4479308 299.61924305 -27.25 295.875 C-27.90226563 295.23433594 -28.55453125 294.59367187 -29.2265625 293.93359375 C-31 292 -31 292 -32.3359375 289.91015625 C-33.76918505 287.71685318 -34.76794856 286.39391164 -37 285 C-41.77598849 284.62482883 -46.27771429 285.30611312 -51 286 C-60.63971885 287.34317238 -70.34962786 287.2433781 -80.0625 287.25 C-81.39516907 287.25101212 -81.39516907 287.25101212 -82.75476074 287.25204468 C-109.96637499 287.21929279 -145.78625561 286.60532525 -167 267 C-171.78238354 262.18245187 -174.27012283 257.46384595 -174.5 250.625 C-173.76146441 221.57593346 -144.9200006 188.0796427 -129.1875 164.9375 C-127.89089545 163.02434643 -126.59466985 161.11093597 -125.29882812 159.19726562 C-123.47361222 156.50192307 -121.64793757 153.80691058 -119.81913757 151.11399841 C-116.18455907 145.76124208 -112.58026073 140.38924094 -109 135 C-109.74991211 135.14074951 -110.49982422 135.28149902 -111.27246094 135.42651367 C-120.28554373 136.98098957 -129.12986755 137.36048652 -138.25 137.3125 C-139.36183151 137.30926727 -139.36183151 137.30926727 -140.49612427 137.30596924 C-169.05605925 137.17367474 -215.3890676 135.6109324 -237 114 C-236.814375 113.195625 -236.62875 112.39125 -236.4375 111.5625 C-236.293125 110.716875 -236.14875 109.87125 -236 109 C-237.33378575 107.1645201 -237.33378575 107.1645201 -239 106 C-232.69803076 104.30922777 -228.93351132 106.3877237 -223.51953125 109.36328125 C-210.18208756 116.48271671 -196.01522366 119.15347105 -181.25 121.75 C-180.05511963 121.96084229 -178.86023926 122.17168457 -177.62915039 122.38891602 C-162.44716008 124.93473068 -147.48948319 125.16112386 -132.13793945 125.13037109 C-128.91287652 125.12495868 -125.68794962 125.13037261 -122.46289062 125.13671875 C-120.40104136 125.1360588 -118.33919218 125.13477935 -116.27734375 125.1328125 C-115.31900131 125.13483673 -114.36065887 125.13686096 -113.37327576 125.13894653 C-112.47786575 125.13579437 -111.58245575 125.13264221 -110.65991211 125.12939453 C-109.48748207 125.12820114 -109.48748207 125.12820114 -108.29136658 125.12698364 C-103.50535915 124.93737485 -103.50535915 124.93737485 -99.55297852 122.61157227 C-99.16553467 122.01916748 -98.77809082 121.4267627 -98.37890625 120.81640625 C-97.92588135 120.14536865 -97.47285645 119.47433105 -97.00610352 118.78295898 C-96.52971436 118.05020752 -96.0533252 117.31745605 -95.5625 116.5625 C-94.50377905 115.00003681 -93.44113648 113.44022518 -92.375 111.8828125 C-91.82328125 111.07489258 -91.2715625 110.26697266 -90.703125 109.43457031 C-79.03219538 92.75129763 -65.60794712 77.09276571 -52.38574219 61.62402344 C-50.94270908 59.93285779 -49.50625183 58.23625381 -48.0703125 56.5390625 C-36.95303296 43.43325277 -25.22135742 31.07833737 -13 19 C-7.32249674 13.52749239 -7.32249674 13.52749239 -3 7 C-9.94007154 7.24351128 -13.17267808 9.06708042 -18 14 C-16.23256627 8.53702303 -13.0989319 4.614563 -8.5625 1.125 C-5.38516042 -0.26992957 -3.43852257 -0.50145121 0 0 Z " fill="#7F4E25" transform="translate(300,116)"/>
<path d="M0 0 C4.08916479 2.25016198 7.4278449 5.00977897 10.8125 8.1875 C11.34093506 8.68088867 11.86937012 9.17427734 12.41381836 9.68261719 C13.46888448 10.6712693 14.52176116 11.66226392 15.57226562 12.65576172 C16.76019172 13.77421608 17.96409971 14.8756661 19.171875 15.97265625 C25.76532025 22.1710397 30.84308314 29.60834822 36 37 C36.58652344 37.83660156 37.17304688 38.67320312 37.77734375 39.53515625 C40.36853735 43.43321271 41.2850872 46.44105609 42 51 C42.64594347 53.42228802 43.31395744 55.83876218 44 58.25 C45.619063 64.19017186 46.79435497 69.83959015 47 76 C47.03996094 77.16660156 47.07992187 78.33320313 47.12109375 79.53515625 C47.38862017 95.50805744 45.34614629 110.64468167 41 126 C40.5359375 127.74990234 40.5359375 127.74990234 40.0625 129.53515625 C38.01369816 136.83401281 35.13167139 142.67977 31 149 C29.9529014 150.76762684 28.91117286 152.53844647 27.875 154.3125 C25.80377986 157.75549684 23.75404507 161.04923743 21 164 C20.34 164 19.68 164 19 164 C18.75636719 164.56074219 18.51273437 165.12148438 18.26171875 165.69921875 C15.68778995 170.39285362 11.63923355 174.11414071 8 178 C7.39542969 178.64710938 6.79085937 179.29421875 6.16796875 179.9609375 C-10.00597859 196.70305629 -31.98699346 207.64485547 -54.01660156 214.37451172 C-56.24186836 215.07627606 -58.44422714 215.83236814 -60.6484375 216.59765625 C-61.84231079 217.00914917 -61.84231079 217.00914917 -63.06030273 217.42895508 C-64.59534066 217.95913198 -66.12883522 218.49380861 -67.66040039 219.03393555 C-72.45864097 220.66824933 -76.95054603 221.52181045 -82 222 C-78.48371405 219.15103839 -74.89546726 216.43105793 -71.25 213.75 C-66.4973568 210.21192118 -62.05885972 206.4893682 -57.7421875 202.43359375 C-56 201 -56 201 -54 201 C-54 200.34 -54 199.68 -54 199 C-52.6015625 197.625 -52.6015625 197.625 -50.625 196 C-46.17078591 192.23777988 -42.14316468 188.13941718 -38.1015625 183.94140625 C-36 182 -36 182 -34 182 C-33.7525 181.26652344 -33.505 180.53304687 -33.25 179.77734375 C-31.87474433 176.72169755 -30.32709119 174.96023503 -28 172.5625 C-22.84663316 166.98794453 -18.49704064 161.04444186 -14.22314453 154.78808594 C-13.43130057 153.63050806 -12.63317754 152.47719014 -11.82763672 151.32910156 C-2.98004009 138.69399344 3.3442705 124.68116058 8 110 C8.350625 108.94554687 8.70125 107.89109375 9.0625 106.8046875 C10.10330125 103.5521836 11.06477987 100.28440401 12 97 C12.30421875 95.97261719 12.6084375 94.94523437 12.921875 93.88671875 C15.15665834 84.91596109 15.29164507 76.08146489 15.3125 66.875 C15.32071777 64.98116577 15.32071777 64.98116577 15.32910156 63.04907227 C15.26716634 54.86027433 14.48143001 47.04967329 13 39 C12.87004639 38.24557617 12.74009277 37.49115234 12.60620117 36.71386719 C10.47587694 24.88804022 6.01798816 14.54344186 0.76269531 3.79321289 C0 2 0 2 0 0 Z " fill="#D9AD6B" transform="translate(342,116)"/>
<path d="M0 0 C7.72128261 7.72128261 6.41997366 27.11370264 6.4375 37.125 C6.03249439 81.19946233 -12.72731637 120.80852544 -43.6875 151.8125 C-45.11982702 153.21364105 -46.55525551 154.61166636 -48 156 C-47.13343774 158.00932891 -47.13343774 158.00932891 -46 160 C-45.38125 160.144375 -44.7625 160.28875 -44.125 160.4375 C-42 161 -42 161 -40.38671875 163.1953125 C-37.27613782 166.85062692 -33.77854942 168.98862936 -29.6875 171.4375 C-28.88642822 171.91977051 -28.08535645 172.40204102 -27.26000977 172.89892578 C-14.92172037 180.15587982 -1.71699919 184.20557917 12 188 C8.09884795 192.12752451 3.88925057 195.4627748 -0.6875 198.8125 C-2.12326451 199.8764329 -3.55816242 200.94153627 -4.9921875 202.0078125 C-5.68280273 202.52118164 -6.37341797 203.03455078 -7.08496094 203.56347656 C-11.14025987 206.60546775 -15.07416851 209.79390428 -19 213 C-19.8559375 213.69351563 -20.711875 214.38703125 -21.59375 215.1015625 C-27.17415621 219.63965146 -32.68245279 224.25623355 -38.16333008 228.91333008 C-42.45309003 232.55279925 -46.79209901 236.12619935 -51.17578125 239.65234375 C-53.27290152 241.3955931 -55.28784483 243.16058913 -57.29296875 245.00390625 C-57.85757813 245.51179687 -58.4221875 246.0196875 -59.00390625 246.54296875 C-60.09547915 247.52817028 -61.17341399 248.5287811 -62.234375 249.546875 C-65.20255593 252.1962232 -66.92980283 252.9927985 -70.921875 253.40234375 C-88.21595016 252.23017832 -103.2199177 244.32439454 -116 233 C-116.84175781 232.26652344 -117.68351563 231.53304687 -118.55078125 230.77734375 C-125.74279522 224.41475779 -132.62465234 217.83072484 -138.7734375 210.4453125 C-140.0816211 208.86398002 -140.0816211 208.86398002 -142 207 C-142.70710678 205.35008418 -143.37943989 203.68437744 -144 202 C-145.27875 201.979375 -146.5575 201.95875 -147.875 201.9375 C-148.95394531 201.92009766 -148.95394531 201.92009766 -150.0546875 201.90234375 C-152.59850036 201.98668768 -155.04935527 202.210586 -157.57641602 202.49121094 C-162.63350091 203.00462101 -167.64203901 203.19200963 -172.72265625 203.23828125 C-173.61804611 203.24802979 -174.51343597 203.25777832 -175.43595886 203.26782227 C-203.80787802 203.5133749 -230.94068214 202.56431397 -257 190 C-257 189.67 -257 189.34 -257 189 C-251.15263047 187.18153233 -247.86164215 186.84495895 -241.875 188.6875 C-224.8721489 193.36447919 -208.11971542 194.28274473 -190.5625 194.3125 C-189.70736816 194.31608521 -188.85223633 194.31967041 -187.97119141 194.32336426 C-177.13379706 194.34779153 -166.70217406 193.75493928 -156 192 C-154.77804932 191.80317627 -153.55609863 191.60635254 -152.29711914 191.40356445 C-149.52845903 190.95114169 -146.76333893 190.48371296 -144 190 C-143.47792969 190.72703125 -142.95585937 191.4540625 -142.41796875 192.203125 C-137.48349641 198.9437352 -132.26728736 205.18062958 -126.54296875 211.26171875 C-124.48929601 213.47312365 -122.58264322 215.7186327 -120.6875 218.0625 C-109.19634769 231.2580816 -91.22394414 243.19381718 -73.56640625 244.46875 C-68.10378619 244.35801734 -65.3916831 241.7519595 -61.625 238.0625 C-60.31884339 236.85684208 -59.01154521 235.65241976 -57.703125 234.44921875 C-57.07212891 233.8567334 -56.44113281 233.26424805 -55.79101562 232.65380859 C-53.40483075 230.45042578 -50.90738584 228.40757285 -48.375 226.375 C-44.98535259 223.63123813 -41.63561995 220.8509281 -38.31982422 218.01904297 C-31.54862305 212.23627918 -24.61819218 206.69020707 -17.58203125 201.23388672 C-16.10865796 200.0847465 -14.64755455 198.91992204 -13.1875 197.75390625 C-12.383125 197.11324219 -11.57875 196.47257813 -10.75 195.8125 C-10.06421875 195.26207031 -9.3784375 194.71164062 -8.671875 194.14453125 C-7 193 -7 193 -5 193 C-5 192.34 -5 191.68 -5 191 C-5.804375 190.814375 -5.804375 190.814375 -6.625 190.625 C-22.35953187 186.48433372 -37.00440628 177.4242348 -49.3125 167 C-49.88758301 166.51370117 -50.46266602 166.02740234 -51.05517578 165.52636719 C-54.61152233 162.43326392 -57.72360538 159.14766083 -60.72729492 155.515625 C-62.06990404 153.87223498 -62.06990404 153.87223498 -64 152 C-63.278125 151.608125 -62.55625 151.21625 -61.8125 150.8125 C-58.74416359 148.83512765 -56.51447956 146.64020354 -54 144 C-52.33333333 142.33333333 -50.66666667 140.66666667 -49 139 C-48.443125 138.401875 -47.88625 137.80375 -47.3125 137.1875 C-46 136 -46 136 -44 136 C-43.76023437 135.44441406 -43.52046875 134.88882813 -43.2734375 134.31640625 C-41.71697469 131.48517176 -39.77311414 129.35325943 -37.625 126.9375 C-13.16602765 98.28929731 1.26261154 59.98251417 1.125 22.4375 C1.12886719 21.37853516 1.13273437 20.31957031 1.13671875 19.22851562 C1.12874574 12.75841445 0.78659223 6.42264206 0 0 Z " fill="#826C66" transform="translate(403,192)"/>
<path d="M0 0 C0 3.79616263 -0.80481851 4.23734179 -3.4375 6.875 C-41.37746828 43.33293827 -94.12547225 56.88905705 -145.5390625 56.1875 C-161.77235351 55.80921183 -178.27168073 53.4854329 -193.875 48.89453125 C-197.12817547 47.96330977 -199.63808452 47.60907959 -203 48 C-205.05925681 51.08888522 -205.2390374 51.70935927 -205.125 55.1875 C-205.08375 56.445625 -205.0425 57.70375 -205 59 C-203.02 59.66 -201.04 60.32 -199 61 C-199.33 61.66 -199.66 62.32 -200 63 C-203.81409901 63.55622277 -205.889659 63.72361541 -209.17578125 61.58203125 C-212.53919006 58.69823101 -215.36262366 56.19526773 -217 52 C-217.41281953 45.49809237 -217.0508368 41.44961062 -212.75 36.3125 C-207.57853594 31.96376886 -202.43515692 31.50681791 -195.8671875 31.61328125 C-183.34998114 32.86500189 -170.88020639 36.54153705 -158.875 40.203125 C-123.45339941 50.02106864 -74.42108241 38.22572363 -41.98046875 23.69921875 C-40 23 -40 23 -36 23 C-36 22.34 -36 21.68 -36 21 C-34.87078125 20.63261719 -34.87078125 20.63261719 -33.71875 20.2578125 C-26.68949746 17.78392508 -20.55067611 14.76678611 -14.25 10.8125 C-13.54681641 10.37244629 -12.84363281 9.93239258 -12.11914062 9.47900391 C-8.48044757 7.30411058 -8.48044757 7.30411058 -6 4 C-4.35178756 2.96986723 -2.68496298 1.96885372 -1 1 C-0.67 0.67 -0.34 0.34 0 0 Z " fill="#FCF2CA" transform="translate(352,318)"/>
<path d="M0 0 C1.216875 0.103125 2.43375 0.20625 3.6875 0.3125 C1.75653695 6.68467805 -2.7880548 11.09646813 -7.75 15.3125 C-17.31811153 23.45832468 -26.25116117 32.68122866 -34.3125 42.3125 C-35.20831419 43.35790445 -36.1055951 44.40205289 -37.00390625 45.4453125 C-39.60122427 48.46200236 -42.18986907 51.48596304 -44.77490234 54.51318359 C-45.76629386 55.6733226 -46.75872904 56.83257095 -47.75244141 57.99072266 C-54.30695371 65.63037344 -60.62989007 73.41694162 -66.79980469 81.37011719 C-68.42289835 83.45425747 -70.05833896 85.52830916 -71.6953125 87.6015625 C-72.88100494 89.10874866 -74.06589047 90.61656992 -75.25 92.125 C-75.83749023 92.87281738 -76.42498047 93.62063477 -77.03027344 94.39111328 C-80.0364348 98.25511431 -82.93447184 102.15948579 -85.6953125 106.203125 C-86.23164307 106.9871167 -86.76797363 107.7711084 -87.32055664 108.57885742 C-88.33344506 110.07504332 -89.33336754 111.58011521 -90.31811523 113.0949707 C-90.77130127 113.76616943 -91.2244873 114.43736816 -91.69140625 115.12890625 C-92.0788501 115.72131104 -92.46629395 116.31371582 -92.86547852 116.92407227 C-96.8061996 120.70522307 -104.23341154 119.47439548 -109.34375 119.48046875 C-110.82325134 119.48546135 -110.82325134 119.48546135 -112.3326416 119.49055481 C-114.42732275 119.49561567 -116.52201196 119.49796339 -118.61669922 119.49780273 C-121.7459141 119.49995422 -124.87475539 119.51802012 -128.00390625 119.53710938 C-143.18817642 119.57937816 -158.33568749 119.00487565 -173.3125 116.3125 C-173.3125 115.9825 -173.3125 115.6525 -173.3125 115.3125 C-172.34957031 115.21195312 -171.38664062 115.11140625 -170.39453125 115.0078125 C-159.99813169 113.69657766 -150.3063322 110.88794131 -140.4375 107.4375 C-138.62149292 106.80352295 -138.62149292 106.80352295 -136.76879883 106.15673828 C-126.1696948 102.37822323 -115.73646976 98.3302313 -105.8125 93 C-105.0918335 92.61537598 -104.37116699 92.23075195 -103.62866211 91.83447266 C-97.24320211 88.37292977 -91.25092797 84.49930533 -85.3125 80.3125 C-84.40628906 79.68085938 -83.50007813 79.04921875 -82.56640625 78.3984375 C-80.87055956 77.21411663 -79.17762081 76.02561566 -77.48828125 74.83203125 C-75.72573895 73.60109956 -73.92992904 72.41789526 -72.125 71.25 C-69.13982215 69.19354415 -66.50574217 66.9207654 -63.828125 64.484375 C-62.3125 63.3125 -62.3125 63.3125 -60.3125 63.3125 C-60.3125 62.6525 -60.3125 61.9925 -60.3125 61.3125 C-58.87890625 59.9375 -58.87890625 59.9375 -56.875 58.3125 C-51.867404 54.05692813 -47.62295131 49.25891954 -43.3125 44.3125 C-42.73886719 43.66539062 -42.16523438 43.01828125 -41.57421875 42.3515625 C-39.8057031 40.35090279 -38.05931008 38.33213842 -36.3125 36.3125 C-35.50167969 35.39210937 -34.69085938 34.47171875 -33.85546875 33.5234375 C-27.8308986 26.60674435 -22.42791503 19.44642177 -17.37231445 11.78540039 C-16.90011475 11.08793701 -16.42791504 10.39047363 -15.94140625 9.671875 C-15.52963135 9.04764648 -15.11785645 8.42341797 -14.69360352 7.78027344 C-12.98321348 5.9625494 -11.70409071 5.85729225 -9.3125 5.3125 C-8.19875 4.0440625 -8.19875 4.0440625 -7.0625 2.75 C-4.11967197 0.14158425 -3.68185851 -0.02597431 0 0 Z " fill="#D9AC6B" transform="translate(293.3125,122.6875)"/>
<path d="M0 0 C7.72128261 7.72128261 6.41997366 27.11370264 6.4375 37.125 C6.03027852 81.44060252 -12.9447839 121.25826923 -44.1875 152.3125 C-45.78654802 153.88023798 -47.38872885 155.44482727 -49 157 C-52.1612658 154.53721355 -54.74119327 152.32876781 -57 149 C-55.43638038 145.16202456 -52.97489917 142.8332373 -50 140 C-49.278125 139.236875 -48.55625 138.47375 -47.8125 137.6875 C-46 136 -46 136 -44 136 C-43.76023437 135.44441406 -43.52046875 134.88882813 -43.2734375 134.31640625 C-41.71697469 131.48517176 -39.77311414 129.35325943 -37.625 126.9375 C-13.16602765 98.28929731 1.26261154 59.98251417 1.125 22.4375 C1.12886719 21.37853516 1.13273437 20.31957031 1.13671875 19.22851562 C1.12874574 12.75841445 0.78659223 6.42264206 0 0 Z " fill="#CE9C64" transform="translate(403,192)"/>
<path d="M0 0 C5.67054734 3.65259908 9.33295098 6.90586065 11.96484375 13.265625 C13.51246256 24.78213974 10.53109422 35.24637415 4.96484375 45.265625 C4.30484375 45.265625 3.64484375 45.265625 2.96484375 45.265625 C2.71734375 45.99136719 2.46984375 46.71710938 2.21484375 47.46484375 C0.84056921 50.54407764 -0.78171554 52.58028539 -3.03515625 55.078125 C-3.73640625 55.86832031 -4.43765625 56.65851563 -5.16015625 57.47265625 C-7.03515625 59.265625 -7.03515625 59.265625 -9.03515625 59.265625 C-9.32519531 60.09320313 -9.32519531 60.09320313 -9.62109375 60.9375 C-11.64146517 64.26385737 -14.57358225 66.24686121 -17.66015625 68.515625 C-18.57667969 69.20398438 -18.57667969 69.20398438 -19.51171875 69.90625 C-21.01423545 71.03313752 -22.52400034 72.15034937 -24.03515625 73.265625 C-25.35515625 72.605625 -26.67515625 71.945625 -28.03515625 71.265625 C-27.49527297 66.96198397 -26.04531212 64.54903124 -23.41015625 61.140625 C-19.88005151 56.46545044 -16.71376568 51.68255657 -13.67578125 46.67578125 C-12.03515625 44.265625 -12.03515625 44.265625 -10.03125 42.35546875 C-7.52409257 39.73055833 -6.3234588 37.07385076 -4.84765625 33.765625 C-4.08388672 32.07953125 -4.08388672 32.07953125 -3.3046875 30.359375 C-0.85795664 24.39688012 -0.72052354 19.25097267 -1.22265625 12.890625 C-1.9492243 11.03742004 -1.9492243 11.03742004 -4.22265625 10.140625 C-5.15078125 9.851875 -6.07890625 9.563125 -7.03515625 9.265625 C-7.93234375 8.92660156 -8.82953125 8.58757812 -9.75390625 8.23828125 C-16.40315414 6.2672542 -24.29057785 5.92459141 -30.87109375 8.28125 C-33.06461793 9.49096765 -35.03944044 10.75500855 -37.03515625 12.265625 C-38.14310547 13.09126953 -38.14310547 13.09126953 -39.2734375 13.93359375 C-39.85480469 14.37316406 -40.43617188 14.81273438 -41.03515625 15.265625 C-41.03515625 13.945625 -41.03515625 12.625625 -41.03515625 11.265625 C-40.37515625 11.265625 -39.71515625 11.265625 -39.03515625 11.265625 C-38.76832031 10.6675 -38.50148438 10.069375 -38.2265625 9.453125 C-35.23744812 3.96491498 -29.36531769 0.27088726 -23.6875 -2.0390625 C-15.79618251 -4.10777312 -7.26814157 -3.84385886 0 0 Z " fill="#FDF3CA" transform="translate(314.03515625,106.734375)"/>
<path d="M0 0 C17.1916075 4.39955253 33.92957186 5.59467751 51.625 5.625 C52.4631424 5.62858521 53.30128479 5.63217041 54.16482544 5.63586426 C56.64531651 5.64156688 59.12505004 5.63260995 61.60546875 5.61328125 C62.41204422 5.60702728 63.21861969 5.60077332 64.04963684 5.59432983 C68.32835456 5.5155252 72.48870865 5.22314502 76.72900391 4.63427734 C78.02031975 4.45967232 78.02031975 4.45967232 79.33772278 4.28153992 C80.98000695 4.04512204 82.61846181 3.77967191 84.25053406 3.48078918 C89.59450307 2.6986037 89.59450307 2.6986037 92.07943726 4.50820923 C94.40165096 7.13861436 95.4375 8.77084697 95.4375 12.3125 C82.92761669 14.24530978 70.64356651 14.71306852 58 14.6875 C57.03316284 14.68728851 56.06632568 14.68707703 55.07019043 14.68685913 C30.79552407 14.63394419 7.57195323 11.98446852 -14.5625 1.3125 C-14.5625 0.9825 -14.5625 0.6525 -14.5625 0.3125 C-9.10451635 -1.68054435 -5.59934779 -1.63738606 0 0 Z " fill="#CD9C65" transform="translate(160.5625,380.6875)"/>
<path d="M0 0 C1.875 0.25 1.875 0.25 4 1 C5.1328125 3.046875 5.1328125 3.046875 6 5 C4.98292969 5.81791016 4.98292969 5.81791016 3.9453125 6.65234375 C-10.35352435 18.23796641 -23.63123229 30.48727678 -35 45 C-35.66 44.01 -36.32 43.02 -37 42 C-38.32 42.66 -39.64 43.32 -41 44 C-41.33 43.34 -41.66 42.68 -42 42 C-41.67 41.34 -41.34 40.68 -41 40 C-40.01 40 -39.02 40 -38 40 C-37.71125 39.21625 -37.4225 38.4325 -37.125 37.625 C-35.8659506 34.68721807 -34.8584378 33.4292189 -32 32 C-31.89171875 30.93394531 -31.7834375 29.86789063 -31.671875 28.76953125 C-30.86640331 24.25046043 -29.5365976 22.81365718 -26.25 19.6875 C-25.38890625 18.84574219 -24.5278125 18.00398438 -23.640625 17.13671875 C-21.11814093 15.09559628 -19.06378299 13.99738259 -16 13 C-16 13.66 -16 14.32 -16 15 C-15.34 14.67 -14.68 14.34 -14 14 C-14.33 13.34 -14.66 12.68 -15 12 C-14.01 11.34 -13.02 10.68 -12 10 C-11.401875 9.319375 -10.80375 8.63875 -10.1875 7.9375 C-8 6 -8 6 -4.875 5.5625 C-3.92625 5.376875 -2.9775 5.19125 -2 5 C-0.54708727 2.53744315 -0.54708727 2.53744315 0 0 Z " fill="#7D4B21" transform="translate(128,121)"/>
<path d="M0 0 C0.99 0.33 1.98 0.66 3 1 C3.61875 2.299375 3.61875 2.299375 4.25 3.625 C8.52627596 11.87210363 15.53219689 15.79761899 23.6875 19.6875 C24.66340088 20.16372803 25.63930176 20.63995605 26.64477539 21.13061523 C33.30128141 24.32673535 39.85890533 27.07603565 47 29 C47.74894531 29.22042969 48.49789062 29.44085938 49.26953125 29.66796875 C50.84120878 30.12986215 52.41957794 30.5689758 54 31 C54 31.33 54 31.66 54 32 C46.54861841 32.32701988 40.03341315 31.163923 32.8125 29.375 C31.70914307 29.10429687 30.60578613 28.83359375 29.46899414 28.5546875 C21.22266063 26.4593027 13.53089346 24.03630397 6 20 C4.70642578 19.32710937 4.70642578 19.32710937 3.38671875 18.640625 C1.11199315 17.2420027 -0.42435867 16.15464205 -2 14 C-3.14260411 8.8582815 -2.59152931 4.57204765 0 0 Z " fill="#FCF1C9" transform="translate(69,206)"/>
<path d="M0 0 C-0.33 1.32 -0.66 2.64 -1 4 C-2.65 4 -4.3 4 -6 4 C-6.76522801 7.35458155 -6.76522801 7.35458155 -7 11 C-5.59627278 12.73787713 -5.59627278 12.73787713 -4 14 C-5.73656095 15.22756895 -7.48980377 16.43156853 -9.25 17.625 C-10.22453125 18.29789063 -11.1990625 18.97078125 -12.203125 19.6640625 C-15 21 -15 21 -17.171875 20.2734375 C-17.77515625 19.85320312 -18.3784375 19.43296875 -19 19 C-19.99 18.67 -20.98 18.34 -22 18 C-22.309375 19.2065625 -22.309375 19.2065625 -22.625 20.4375 C-23.07875 21.283125 -23.5325 22.12875 -24 23 C-26.9375 23.625 -26.9375 23.625 -30 24 C-31.72943475 25.31267956 -31.72943475 25.31267956 -33 27 C-33.556875 27.495 -34.11375 27.99 -34.6875 28.5 C-36.3292523 30.04409629 -36.3292523 30.04409629 -36 33 C-38 32.33333333 -40 31.66666667 -42 31 C-34.14341456 22.66075743 -12.3820398 0 0 0 Z " fill="#7E4D26" transform="translate(150,104)"/>
<path d="M0 0 C0.66 0.66 1.32 1.32 2 2 C1.96712417 4.72869407 1.43602229 7.2966618 1 10 C0.01 9.67 -0.98 9.34 -2 9 C-1.68160156 9.84046875 -1.36320312 10.6809375 -1.03515625 11.546875 C0.06299991 15.2101582 0.37184912 18.43698249 0.5625 22.25 C0.6455214 26.78821333 0.6455214 26.78821333 2 31 C-0.31 31.33 -2.62 31.66 -5 32 C-3.68 32.99 -2.36 33.98 -1 35 C-1.99 35 -2.98 35 -4 35 C-4.33 35.66 -4.66 36.32 -5 37 C-8.06484957 32.01961945 -8.88171424 27.71900891 -8 22 C-5.8991638 14.44181918 -3.14725822 7.18054808 0 0 Z " fill="#7A4A23" transform="translate(67,191)"/>
<path d="M0 0 C2.9375 1.5 2.9375 1.5 5 4 C5.16526091 9.20571868 4.83989283 11.01671083 1.4375 15 C0.633125 15.66 -0.17125 16.32 -1 17 C-2.40783184 14.37204724 -3.50772334 11.95365998 -4 9 C-3.67 8.34 -3.34 7.68 -3 7 C-9.94007154 7.24351128 -13.17267808 9.06708042 -18 14 C-16.23256627 8.53702303 -13.0989319 4.614563 -8.5625 1.125 C-5.38516042 -0.26992957 -3.43852257 -0.50145121 0 0 Z " fill="#865527" transform="translate(300,116)"/>
<path d="M0 0 C0.33 0.66 0.66 1.32 1 2 C0.505 2.433125 0.01 2.86625 -0.5 3.3125 C-2.33218192 4.99740483 -2.33218192 4.99740483 -2 8 C-0.68 8.33 0.64 8.66 2 9 C-0.83089208 11.83089208 -2.48205827 12.93525728 -6.5 13.4375 C-12.44822098 13.15152784 -18.25543176 11.47116991 -24 10 C-23.2575 9.1028125 -23.2575 9.1028125 -22.5 8.1875 C-20.71723582 6.02970006 -20.71723582 6.02970006 -21 3 C-20.030625 3.165 -19.06125 3.33 -18.0625 3.5 C-9.63344863 4.80809339 -9.63344863 4.80809339 -1.9375 2 C-1.298125 1.34 -0.65875 0.68 0 0 Z " fill="#87726D" transform="translate(339,432)"/>
<path d="M0 0 C5.02307349 2.73229603 9.48276671 5.73664665 13.9375 9.3125 C14.54287598 9.79307861 15.14825195 10.27365723 15.77197266 10.76879883 C20.2970697 14.38197808 24.71636173 18.10215524 29 22 C28.34 22.33 27.68 22.66 27 23 C22.83900023 20.91950011 19.53008849 17.98096362 16 15 C15.34 14.67 14.68 14.34 14 14 C13.67 14.66 13.34 15.32 13 16 C12.67 15.34 12.34 14.68 12 14 C11.401875 14.33 10.80375 14.66 10.1875 15 C8 16 8 16 5 16 C1.8125 13.6875 1.8125 13.6875 -1 11 C-1 10.01 -1 9.02 -1 8 C0.98 7.01 2.96 6.02 5 5 C2.03 4.505 2.03 4.505 -1 4 C-0.67 2.68 -0.34 1.36 0 0 Z " fill="#80512A" transform="translate(341,103)"/>
<path d="M0 0 C1.20462891 -0.02126953 1.20462891 -0.02126953 2.43359375 -0.04296875 C4.5625 0.1875 4.5625 0.1875 6.5625 2.1875 C6.57421875 4.31640625 6.57421875 4.31640625 6.25 6.75 C6.15074219 7.55566406 6.05148437 8.36132812 5.94921875 9.19140625 C5.5625 11.1875 5.5625 11.1875 4.5625 12.1875 C0.71749829 12.55023601 -1.61569906 12.70112559 -4.9375 10.625 C-6.4375 8.1875 -6.4375 8.1875 -6.25 4.5 C-5.10155577 -0.18211879 -4.53695207 0.03629562 0 0 Z " fill="#FDE6C7" transform="translate(277.4375,183.8125)"/>
<path d="M0 0 C0.66 0.33 1.32 0.66 2 1 C0.34044641 5.41407039 -1.73954976 9.55409684 -3.875 13.75 C-6.74709288 19.43705553 -9.48935214 25.14182166 -12 31 C-12.95792977 27.36147686 -13.49800802 23.72908331 -14 20 C-13.34 20 -12.68 20 -12 20 C-11.7834375 18.329375 -11.7834375 18.329375 -11.5625 16.625 C-11 13 -11 13 -10 11 C-9.01 10.67 -8.02 10.34 -7 10 C-6.30840599 8.15274948 -6.30840599 8.15274948 -6 6 C-5.625 3.8125 -5.625 3.8125 -5 2 C-4.01 1.67 -3.02 1.34 -2 1 C-1.34 1.33 -0.68 1.66 0 2 C0 1.34 0 0.68 0 0 Z " fill="#7E4D23" transform="translate(79,180)"/>
<path d="M0 0 C2 1 2 1 3.5625 4.25 C4.98986907 10.0440611 1.4308116 14.63105366 -1.3984375 19.4375 C-1.92695313 20.283125 -2.45546875 21.12875 -3 22 C-3.99 22 -4.98 22 -6 22 C-6.33 21.34 -6.66 20.68 -7 20 C-7.99 20 -8.98 20 -10 20 C-8.87548273 17.0280615 -7.77706209 14.66559313 -6 12 C-6 11.01 -6 10.02 -6 9 C-5.01 8.34 -4.02 7.68 -3 7 C-1.92863949 4.69855891 -0.92010283 2.3659787 0 0 Z " fill="#7E4B21" transform="translate(144,327)"/>
<path d="M0 0 C2.8125 0.1875 2.8125 0.1875 5 1 C1.57745529 7.69628312 -3.00289168 13.39472434 -8 19 C-8.33 19 -8.66 19 -9 19 C-9.33 16.36 -9.66 13.72 -10 11 C-10.99 11.66 -11.98 12.32 -13 13 C-13 12.01 -13 11.02 -13 10 C-11.42578125 8.7890625 -11.42578125 8.7890625 -9.3125 7.625 C-6.38258117 5.93307504 -4.67945946 4.65709616 -2.3125 2.125 C-1.549375 1.42375 -0.78625 0.7225 0 0 Z " fill="#82532F" transform="translate(385,319)"/>
<path d="M0 0 C1.32 0.66 2.64 1.32 4 2 C2.47146065 6.27186525 0.28490519 9.99326863 -2.125 13.8125 C-2.49753906 14.40998047 -2.87007812 15.00746094 -3.25390625 15.62304688 C-4.1657048 17.08426251 -5.08235976 18.54244585 -6 20 C-8.475 19.01 -8.475 19.01 -11 18 C-10.6875 15.625 -10.6875 15.625 -10 13 C-9.01 12.34 -8.02 11.68 -7 11 C-6.57006119 9.09580916 -6.57006119 9.09580916 -6.5625 7 C-6.3828125 4.84375 -6.3828125 4.84375 -6 3 C-3.9375 1.5 -3.9375 1.5 -2 1 C-1.67 1.33 -1.34 1.66 -1 2 C-0.67 1.34 -0.34 0.68 0 0 Z " fill="#7F4D25" transform="translate(170,289)"/>
<path d="M0 0 C2.12908655 3.04155221 2.7502786 5.93849251 3.75 9.5 C5.74082365 12.36678805 5.74082365 12.36678805 7.75 14.5 C4.75 15.5 4.75 15.5 2.125 14.75 C-0.25 13.5 -0.25 13.5 -1.25 10.5 C-2.24 10.17 -3.23 9.84 -4.25 9.5 C-5.41796875 7.9765625 -5.41796875 7.9765625 -6.4375 6.125 C-6.78167969 5.51914062 -7.12585938 4.91328125 -7.48046875 4.2890625 C-8.25 2.5 -8.25 2.5 -8.25 -0.5 C-2.92741935 -1.9516129 -2.92741935 -1.9516129 0 0 Z " fill="#7E645C" transform="translate(260.25,383.5)"/>
<path d="M0 0 C0.66 0.33 1.32 0.66 2 1 C2 3.64 2 6.28 2 9 C1.01 8.67 0.02 8.34 -1 8 C-1.33 8.66 -1.66 9.32 -2 10 C-4.49869657 12.84334437 -6.19804378 14.4568634 -10 15 C-10.66 13.68 -11.32 12.36 -12 11 C-10.75796305 9.53487874 -9.50602944 8.07814355 -8.25 6.625 C-7.55390625 5.81289063 -6.8578125 5.00078125 -6.140625 4.1640625 C-4.12712782 2.12851973 -2.68904971 0.93777784 0 0 Z " fill="#7E4B22" transform="translate(374,329)"/>
<path d="M0 0 C0.598125 0.226875 1.19625 0.45375 1.8125 0.6875 C1.49633092 6.85279701 -1.67965061 10.86018433 -5.1875 15.6875 C-7.83258959 13.04241041 -7.96983633 11.38778236 -8.1875 7.6875 C-4.32457165 -0.61779595 -4.32457165 -0.61779595 0 0 Z " fill="#7E4B21" transform="translate(157.1875,312.3125)"/>
<path d="M0 0 C0.88751953 0.19916016 0.88751953 0.19916016 1.79296875 0.40234375 C5.85446525 1.31005178 9.91374171 2.2091113 14 3 C13.67 3.61875 13.34 4.2375 13 4.875 C11.85806765 6.91018344 11.85806765 6.91018344 12 9 C8.70303895 10.09898702 7.59505097 9.87124444 4.3125 9.0625 C3.50425781 8.86785156 2.69601563 8.67320312 1.86328125 8.47265625 C1.24839844 8.31667969 0.63351563 8.16070312 0 8 C-0.33 6.68 -0.66 5.36 -1 4 C-0.34 4 0.32 4 1 4 C0.34 3.34 -0.32 2.68 -1 2 C-0.67 1.34 -0.34 0.68 0 0 Z " fill="#7D4A23" transform="translate(154,386)"/>
<path d="M0 0 C2.64 0.33 5.28 0.66 8 1 C8 1.99 8 2.98 8 4 C10.475 4.99 10.475 4.99 13 6 C12.67 6.66 12.34 7.32 12 8 C9.4375 8.625 9.4375 8.625 7 9 C7 9.66 7 10.32 7 11 C3.00499382 9.6302836 0.19990508 7.74277578 -3 5 C-2 3 -2 3 0 1 C0 0.67 0 0.34 0 0 Z " fill="#7D4B20" transform="translate(333,102)"/>
<path d="M0 0 C1 2 1 2 1 5 C2.94009522 6.70532323 2.94009522 6.70532323 5 8 C3 11 3 11 1.0546875 11.51171875 C0.33539063 11.56972656 -0.38390625 11.62773437 -1.125 11.6875 C-2.40375 11.790625 -3.6825 11.89375 -5 12 C-5.66 14.64 -6.32 17.28 -7 20 C-7.66 20 -8.32 20 -9 20 C-9.33 20.66 -9.66 21.32 -10 22 C-11 19 -11 19 -10.21142578 17.02294922 C-9.7936084 16.29092285 -9.37579102 15.55889648 -8.9453125 14.8046875 C-8.49542969 14.00675781 -8.04554687 13.20882812 -7.58203125 12.38671875 C-6.86080078 11.14341797 -6.86080078 11.14341797 -6.125 9.875 C-5.65191406 9.03839844 -5.17882812 8.20179688 -4.69140625 7.33984375 C-1.19666353 1.19666353 -1.19666353 1.19666353 0 0 Z " fill="#825630" transform="translate(79,170)"/>
<path d="M0 0 C1.96875 0.65625 1.96875 0.65625 3.9375 1.3125 C4.75863281 1.58578125 5.57976562 1.8590625 6.42578125 2.140625 C8.07006746 2.68955211 9.71340015 3.2413493 11.35546875 3.796875 C15.87541003 5.32167447 20.40224264 6.72827988 25 8 C25 8.33 25 8.66 25 9 C18.4576343 9.20956527 12.78261159 8.54580496 6.4375 7 C5.61958984 6.80921875 4.80167969 6.6184375 3.95898438 6.421875 C1.97056956 5.95674873 -0.01503756 5.47964573 -2 5 C-1.125 1.125 -1.125 1.125 0 0 Z " fill="#F8EBC1" transform="translate(98,229)"/>
<path d="M0 0 C0 0.66 0 1.32 0 2 C-1.65 2 -3.3 2 -5 2 C-5 3.32 -5 4.64 -5 6 C-6.32 6.33 -7.64 6.66 -9 7 C-8.67 6.01 -8.34 5.02 -8 4 C-8.66 3.67 -9.32 3.34 -10 3 C-10 3.66 -10 4.32 -10 5 C-11.5 6.625 -11.5 6.625 -13 8 C-12.01 8.33 -11.02 8.66 -10 9 C-11.98 9.99 -11.98 9.99 -14 11 C-14 11.99 -14 12.98 -14 14 C-14.99 14 -15.98 14 -17 14 C-16.67 12.02 -16.34 10.04 -16 8 C-18.31 7.34 -20.62 6.68 -23 6 C-19.3672388 3.94267095 -15.50916232 2.92594546 -11.5 1.875 C-10.83613281 1.69324219 -10.17226562 1.51148437 -9.48828125 1.32421875 C-6.16854651 0.44293188 -3.4651581 0 0 0 Z " fill="#875A38" transform="translate(212,81)"/>
<path d="M0 0 C-3.64876416 2.43250944 -6.37228116 2.28948305 -10.58984375 2.265625 C-11.70124474 2.26849518 -11.70124474 2.26849518 -12.83509827 2.27142334 C-14.4010553 2.27278333 -15.96702367 2.26909984 -17.53295898 2.26074219 C-19.92522648 2.25005483 -22.31674046 2.26063554 -24.70898438 2.2734375 C-26.23177249 2.27211557 -27.75456013 2.2695525 -29.27734375 2.265625 C-30.34782204 2.27169769 -30.34782204 2.27169769 -31.43992615 2.27789307 C-35.12165545 2.24328728 -37.87026606 2.02841003 -41 0 C-36.28628878 -0.16860627 -31.57239386 -0.32905255 -26.8581543 -0.48217773 C-25.25684267 -0.53531253 -23.65560142 -0.59061663 -22.05444336 -0.64819336 C-19.74348114 -0.73090754 -17.43237229 -0.80563229 -15.12109375 -0.87890625 C-14.41351425 -0.90594131 -13.70593475 -0.93297638 -12.97691345 -0.96083069 C-8.49904883 -1.09313221 -4.39561764 -0.74557307 0 0 Z " fill="#815A3F" transform="translate(181,251)"/>
<path d="M0 0 C0.33 1.32 0.66 2.64 1 4 C-0.65 5.32 -2.3 6.64 -4 8 C-3.67 6.68 -3.34 5.36 -3 4 C-2.34 4 -1.68 4 -1 4 C-0.67 2.68 -0.34 1.36 0 0 Z M-5 8 C-5 11.74016583 -5.9341591 12.45276193 -8.375 15.1875 C-9.00148438 15.90292969 -9.62796875 16.61835938 -10.2734375 17.35546875 C-12 19 -12 19 -14 19 C-14.28875 19.78375 -14.5775 20.5675 -14.875 21.375 C-16 24 -16 24 -18 26 C-18.66 25.67 -19.32 25.34 -20 25 C-20.433125 25.8971875 -20.433125 25.8971875 -20.875 26.8125 C-22 29 -22 29 -24 32 C-27.125 32.1875 -27.125 32.1875 -30 32 C-27.23461332 29.12654074 -24.35698273 26.66579471 -21.1875 24.25 C-17.14336174 21.05757274 -13.76398871 17.71833632 -10.47265625 13.765625 C-8.76485192 11.7180718 -6.92269279 9.84578508 -5 8 Z " fill="#EED29B" transform="translate(320,148)"/>
<path d="M0 0 C0.99 0.66 1.98 1.32 3 2 C2.375 4.4375 2.375 4.4375 1 7 C-1.9375 7.625 -1.9375 7.625 -5 8 C-6.72943475 9.31267956 -6.72943475 9.31267956 -8 11 C-8.556875 11.495 -9.11375 11.99 -9.6875 12.5 C-11.3292523 14.04409629 -11.3292523 14.04409629 -11 17 C-13 16.33333333 -15 15.66666667 -17 15 C-11.75226411 9.43948515 -6.03948712 4.67847594 0 0 Z " fill="#835B3A" transform="translate(125,120)"/>
<path d="M0 0 C0.66 0.66 1.32 1.32 2 2 C-2.52071298 3.50690433 -5.97646738 2.33497431 -10.4375 0.875 C-17.56107257 -0.8746494 -22.228257 1.37658551 -28.27734375 4.94140625 C-28.84582031 5.29074219 -29.41429687 5.64007813 -30 6 C-30 5.01 -30 4.02 -30 3 C-21.27403242 -3.62133041 -10.059844 -4.13882308 0 0 Z " fill="#EED29A" transform="translate(307,115)"/>
<path d="M0 0 C1.125 1.875 1.125 1.875 1 4.4375 C0.125 6.875 0.125 6.875 -2.875 8.875 C-6.0625 8.5 -6.0625 8.5 -8.875 7.875 C-8 2.125 -8 2.125 -6.875 -0.125 C-2.62918994 -1.57751397 -2.62918994 -1.57751397 0 0 Z " fill="#7D4A21" transform="translate(150.875,108.125)"/>
<path d="M0 0 C5.46737191 1.74807129 10.75824848 3.65794081 16 6 C13.4345406 8.5654594 11.52313332 8.54046087 8 9 C8 8.01 8 7.02 8 6 C7.01 6 6.02 6 5 6 C4.67 7.98 4.34 9.96 4 12 C2.68 11.34 1.36 10.68 0 10 C0.185625 9.278125 0.37125 8.55625 0.5625 7.8125 C1.01995307 4.87173027 0.73516357 2.85896942 0 0 Z " fill="#855A38" transform="translate(304,84)"/>
<path d="M0 0 C0.66 0.66 1.32 1.32 2 2 C1.01 2.495 1.01 2.495 0 3 C-0.66 2.67 -1.32 2.34 -2 2 C-2.33 2.66 -2.66 3.32 -3 4 C-4.36730056 4.82038034 -5.76947387 5.58329728 -7.1875 6.3125 C-11.26491951 8.5010191 -14.56213933 10.91474042 -18 14 C-16.23256627 8.53702303 -13.0989319 4.614563 -8.5625 1.125 C-5.48151721 -0.22762659 -3.33160698 -0.37017855 0 0 Z " fill="#855527" transform="translate(300,116)"/>
<path d="M0 0 C-1.98760331 6.88016529 -1.98760331 6.88016529 -5 9 C-7.5625 9.8125 -7.5625 9.8125 -10 10 C-10.66 9.34 -11.32 8.68 -12 8 C-10.280672 4.25793318 -9.18556425 3.09440988 -5.4375 1.1875 C-2 0 -2 0 0 0 Z " fill="#7E6660" transform="translate(360,420)"/>
<path d="M0 0 C1.65 0 3.3 0 5 0 C5.33 0.99 5.66 1.98 6 3 C7.98 2.67 9.96 2.34 12 2 C12.66 3.65 13.32 5.3 14 7 C13.34 7 12.68 7 12 7 C12 6.34 12 5.68 12 5 C10.35 5 8.7 5 7 5 C7 6.32 7 7.64 7 9 C4.03 8.505 4.03 8.505 1 8 C0.40267181 5.23735711 0 2.83967231 0 0 Z " fill="#7D4920" transform="translate(308,89)"/>
<path d="M0 0 C3.95831733 -0.02940464 7.91660597 -0.04693328 11.875 -0.0625 C12.98359375 -0.07087891 14.0921875 -0.07925781 15.234375 -0.08789062 C21.89051489 -0.10746751 28.3939117 0.17120222 35 1 C35 1.33 35 1.66 35 2 C23.12119659 3.47736379 11.83091908 2.38360448 0 1 C0 0.67 0 0.34 0 0 Z " fill="#946E52" transform="translate(243,76)"/>
<path d="M0 0 C7.92 0 15.84 0 24 0 C23.67 1.65 23.34 3.3 23 5 C25.64 5.66 28.28 6.32 31 7 C31 7.33 31 7.66 31 8 C29.20841511 8.02696365 27.41671527 8.04637917 25.625 8.0625 C24.62726563 8.07410156 23.62953125 8.08570313 22.6015625 8.09765625 C20 8 20 8 18 7 C18.33 6.01 18.66 5.02 19 4 C19.66 4.33 20.32 4.66 21 5 C21 3.68 21 2.36 21 1 C14.07 1 7.14 1 0 1 C0 0.67 0 0.34 0 0 Z " fill="#91633D" transform="translate(208,395)"/>
<path d="M0 0 C1.134375 0.020625 2.26875 0.04125 3.4375 0.0625 C4.5625 4.8125 4.5625 4.8125 3.4375 7.0625 C1.10455225 7.10491723 -1.22952567 7.10342937 -3.5625 7.0625 C-4.5625 6.0625 -4.5625 6.0625 -4.6875 3.5625 C-4.4904197 -0.37910609 -4.10054684 0.07193942 0 0 Z " fill="#FEE7C9" transform="translate(267.5625,203.9375)"/>
<path d="M0 0 C0.66 1.32 1.32 2.64 2 4 C2.99 3.34 3.98 2.68 5 2 C5 2.99 5 3.98 5 5 C5.33 5.33 5.66 5.66 6 6 C6.33 4.02 6.66 2.04 7 0 C7.33 0 7.66 0 8 0 C8.144375 1.11375 8.28875 2.2275 8.4375 3.375 C8.78372035 6.82142047 8.78372035 6.82142047 10 9 C7.69 9.33 5.38 9.66 3 10 C4.32 10.99 5.64 11.98 7 13 C6.01 13 5.02 13 4 13 C3.67 13.66 3.34 14.32 3 15 C-0.16727335 9.8531808 -0.35050464 5.841744 0 0 Z " fill="#8A5C35" transform="translate(59,213)"/>
<path d="M0 0 C0.33 0.66 0.66 1.32 1 2 C2.65 1.67 4.3 1.34 6 1 C6 2.32 6 3.64 6 5 C6.99 5.33 7.98 5.66 9 6 C8.030625 6.433125 7.06125 6.86625 6.0625 7.3125 C2.72268235 8.7014861 2.72268235 8.7014861 2 12 C0.68 11.34 -0.64 10.68 -2 10 C-1.34 8.02 -0.68 6.04 0 4 C-0.66 4 -1.32 4 -2 4 C-1.34 2.68 -0.68 1.36 0 0 Z " fill="#7A491F" transform="translate(371,132)"/>
<path d="M0 0 C0 0.99 0 1.98 0 3 C1.32 3 2.64 3 4 3 C4 3.66 4 4.32 4 5 C2.25 6.6875 2.25 6.6875 0 8 C-2.125 7.9375 -2.125 7.9375 -4 7 C-4.6837045 5.67532254 -5.34964186 4.34136367 -6 3 C-8.0335948 1.73195434 -8.0335948 1.73195434 -10 1 C-6.59437148 0.22157062 -3.49234244 -0.09978121 0 0 Z " fill="#85502A" transform="translate(256,370)"/>
<path d="M0 0 C0.66 0.66 1.32 1.32 2 2 C1.34 2 0.68 2 0 2 C0.53625 2.556875 1.0725 3.11375 1.625 3.6875 C2.07875 4.450625 2.5325 5.21375 3 6 C2.1875 8.75 2.1875 8.75 1 11 C-1.31 10.67 -3.62 10.34 -6 10 C-4.79157144 5.56909529 -3.48331435 3.01887244 0 0 Z " fill="#7B4B22" transform="translate(84,166)"/>
<path d="M0 0 C0.99 0.33 1.98 0.66 3 1 C3.99 0.67 4.98 0.34 6 0 C6.99 0.66 7.98 1.32 9 2 C8.67 3.32 8.34 4.64 8 6 C8.66 6.33 9.32 6.66 10 7 C6.92545953 6.92909865 3.98877701 6.7524935 1 6 C-1.0625 3.4375 -1.0625 3.4375 -2 1 C-1.34 0.67 -0.68 0.34 0 0 Z " fill="#7D4B22" transform="translate(297,87)"/>
<path d="M0 0 C0.8353125 0.495 0.8353125 0.495 1.6875 1 C4.30284522 2.1309601 6.1806646 2.15662974 9 2 C7.76736651 5.69790046 6.79947549 5.9354846 3.4375 7.6875 C2.19806641 8.34298828 2.19806641 8.34298828 0.93359375 9.01171875 C0.29550781 9.33785156 -0.34257812 9.66398437 -1 10 C-1.625 8.125 -1.625 8.125 -2 6 C-1.34 5.34 -0.68 4.68 0 4 C-0.33 3.34 -0.66 2.68 -1 2 C-0.67 1.34 -0.34 0.68 0 0 Z " fill="#7F5432" transform="translate(326,345)"/>
<path d="M0 0 C3.91402949 1.26941497 5.79072873 2.51167694 8 6 C7.01 6.33 6.02 6.66 5 7 C4.66781808 10.00259517 4.66781808 10.00259517 6.5 11.6875 C7.2425 12.3371875 7.2425 12.3371875 8 13 C5 13 5 13 2.3125 10.5 C1.549375 9.675 0.78625 8.85 0 8 C0.66 8 1.32 8 2 8 C1.67 7.4225 1.34 6.845 1 6.25 C0 4 0 4 0 0 Z " fill="#86746D" transform="translate(284,414)"/>
<path d="M0 0 C1.65 0.99 3.3 1.98 5 3 C4.360625 3.391875 3.72125 3.78375 3.0625 4.1875 C0.56221181 6.38472296 0.35049575 7.75791433 0 11 C-0.99 10.34 -1.98 9.68 -3 9 C-3.99 10.32 -4.98 11.64 -6 13 C-6.66 12.67 -7.32 12.34 -8 12 C-5.36 8.04 -2.72 4.08 0 0 Z " fill="#E8C38B" transform="translate(210,237)"/>
<path d="M0 0 C0.625 1.8125 0.625 1.8125 1 4 C0.01 5.485 0.01 5.485 -1 7 C-1.66 7 -2.32 7 -3 7 C-3.66 8.65 -4.32 10.3 -5 12 C-5.99 12 -6.98 12 -8 12 C-8.66 13.32 -9.32 14.64 -10 16 C-10.66 15.67 -11.32 15.34 -12 15 C-10.37676928 12.87362766 -8.7515047 10.74886564 -7.125 8.625 C-6.66480469 8.02171875 -6.20460938 7.4184375 -5.73046875 6.796875 C-3.90627059 4.41748609 -2.12258788 2.12258788 0 0 Z " fill="#866041" transform="translate(95,149)"/>
<path d="M0 0 C0.66 0.99 1.32 1.98 2 3 C2.33 2.01 2.66 1.02 3 0 C3.66 0.33 4.32 0.66 5 1 C5 2.65 5 4.3 5 6 C4.2575 5.95875 3.515 5.9175 2.75 5.875 C-0.17203056 6.00781957 -1.60696612 6.34963181 -4 8 C-5.26804566 10.0335948 -5.26804566 10.0335948 -6 12 C-6 8.36804504 -5.04546845 7.25286089 -3 4.3125 C-2.443125 3.50425781 -1.88625 2.69601562 -1.3125 1.86328125 C-0.879375 1.24839844 -0.44625 0.63351562 0 0 Z " fill="#7B481F" transform="translate(385,314)"/>
<path d="M0 0 C2.11754098 0.23907721 4.23493699 0.47951157 6.3515625 0.7265625 C8.11341343 0.90846451 9.87999666 1.04932135 11.6484375 1.1484375 C16.98219562 1.48480062 20.10565332 1.97584177 24 6 C15.68383188 5.41640925 7.98540674 3.26200586 0 1 C0 0.67 0 0.34 0 0 Z " fill="#896447" transform="translate(154,394)"/>
<path d="M0 0 C2.875 0.25 2.875 0.25 3.875 1.25 C4.04799981 4.45049657 3.7847643 7.17954549 2.875 10.25 C1.555 10.25 0.235 10.25 -1.125 10.25 C-1.125 10.91 -1.125 11.57 -1.125 12.25 C-1.785 11.92 -2.445 11.59 -3.125 11.25 C-1.145 8.28 0.835 5.31 2.875 2.25 C-1.58 2.745 -1.58 2.745 -6.125 3.25 C-3.125 0.25 -3.125 0.25 0 0 Z " fill="#886146" transform="translate(188.125,248.75)"/>
<path d="M0 0 C0.99 0.33 1.98 0.66 3 1 C3 1.99 3 2.98 3 4 C3.66 4.66 4.32 5.32 5 6 C4.01 6.33 3.02 6.66 2 7 C2 7.66 2 8.32 2 9 C-1.55780196 8.39009109 -4.6828589 7.4216319 -8 6 C-8 5.67 -8 5.34 -8 5 C-6.865625 4.731875 -5.73125 4.46375 -4.5625 4.1875 C-3.386875 3.795625 -2.21125 3.40375 -1 3 C-0.67 2.01 -0.34 1.02 0 0 Z " fill="#895C3B" transform="translate(152,385)"/>
<path d="M0 0 C0.33 0.99 0.66 1.98 1 3 C1.66 3.33 2.32 3.66 3 4 C2.175 4.45375 1.35 4.9075 0.5 5.375 C-0.7375 6.179375 -0.7375 6.179375 -2 7 C-2 7.66 -2 8.32 -2 9 C-3.32 8.67 -4.64 8.34 -6 8 C-6 4 -6 4 -4.6875 2.3125 C-3 1 -3 1 0 0 Z " fill="#7D4B27" transform="translate(361,343)"/>
<path d="M0 0 C0.33 0.99 0.66 1.98 1 3 C0.56042969 3.41894531 0.12085937 3.83789062 -0.33203125 4.26953125 C-1.98578582 5.9852532 -3.32487015 7.73562481 -4.6875 9.6875 C-5.12449219 10.31011719 -5.56148438 10.93273437 -6.01171875 11.57421875 C-6.33785156 12.04472656 -6.66398437 12.51523438 -7 13 C-8.32 12.67 -9.64 12.34 -11 12 C-3.70159453 3.55353075 -3.70159453 3.55353075 0 0 Z " fill="#856143" transform="translate(107,136)"/>
<path d="M0 0 C0 0.66 0 1.32 0 2 C-1.65 2 -3.3 2 -5 2 C-5 3.32 -5 4.64 -5 6 C-6.32 6.33 -7.64 6.66 -9 7 C-8.67 6.01 -8.34 5.02 -8 4 C-8.66 3.67 -9.32 3.34 -10 3 C-10 3.66 -10 4.32 -10 5 C-10.99 5.33 -11.98 5.66 -13 6 C-13 5.34 -13 4.68 -13 4 C-13.99 3.67 -14.98 3.34 -16 3 C-14.08487728 2.49411853 -12.16783078 1.99551609 -10.25 1.5 C-8.64898437 1.08234375 -8.64898437 1.08234375 -7.015625 0.65625 C-4 0 -4 0 0 0 Z " fill="#8E684A" transform="translate(212,81)"/>
<path d="M0 0 C2.125 0.375 2.125 0.375 4 1 C4 1.99 4 2.98 4 4 C4.99 3.34 5.98 2.68 7 2 C7.99 2.33 8.98 2.66 10 3 C7.69 4.65 5.38 6.3 3 8 C1.68 7.34 0.36 6.68 -1 6 C-0.01 5.67 0.98 5.34 2 5 C0.68 4.01 -0.64 3.02 -2 2 C-1.34 1.34 -0.68 0.68 0 0 Z " fill="#85716B" transform="translate(388,391)"/>
<path d="M0 0 C0.33 0.66 0.66 1.32 1 2 C0.01 2 -0.98 2 -2 2 C-2 2.66 -2 3.32 -2 4 C-3.65 3.67 -5.3 3.34 -7 3 C-7.33 4.32 -7.66 5.64 -8 7 C-9.32 6.34 -10.64 5.68 -12 5 C-11.34 4.67 -10.68 4.34 -10 4 C-10 3.34 -10 2.68 -10 2 C-6.5980513 -0.09350689 -3.94727588 -0.17942163 0 0 Z " fill="#FCF7CD" transform="translate(330,336)"/>
<path d="M0 0 C0.66 0 1.32 0 2 0 C0.06375702 6.20477864 -2.25609141 12.10825719 -5 18 C-5.33 18 -5.66 18 -6 18 C-6 16.35 -6 14.7 -6 13 C-5.34 13 -4.68 13 -4 13 C-4.04125 12.29875 -4.0825 11.5975 -4.125 10.875 C-3.98331668 7.61628372 -3.13265314 5.0440053 -2 2 C-1.34 2 -0.68 2 0 2 C0 1.34 0 0.68 0 0 Z " fill="#896244" transform="translate(406,285)"/>
<path d="M0 0 C2.5 0.125 2.5 0.125 3.5 1.125 C3.54063832 2.79117115 3.542721 4.45888095 3.5 6.125 C2.88125 5.939375 2.2625 5.75375 1.625 5.5625 C-0.54160178 4.88813824 -0.54160178 4.88813824 -2.5 6.125 C-2.5 5.465 -2.5 4.805 -2.5 4.125 C-4.15 4.125 -5.8 4.125 -7.5 4.125 C-6.51 3.795 -5.52 3.465 -4.5 3.125 C-4.17 2.465 -3.84 1.805 -3.5 1.125 C-2.5 0.125 -2.5 0.125 0 0 Z " fill="#7C491F" transform="translate(300.5,117.875)"/>
<path d="M0 0 C0.66 0.33 1.32 0.66 2 1 C1.34 2.32 0.68 3.64 0 5 C1.65 5.33 3.3 5.66 5 6 C3.5 7.625 3.5 7.625 1 9 C-1.83163803 8.65955497 -4.25986036 7.86771089 -7 7 C-4.66666667 4.66666667 -2.33333333 2.33333333 0 0 Z " fill="#89746F" transform="translate(349,423)"/>
<path d="M0 0 C1.65 0 3.3 0 5 0 C5.33 0.66 5.66 1.32 6 2 C3.89828133 2.8394882 1.79353375 3.67139656 -0.3125 4.5 C-1.48425781 4.9640625 -2.65601563 5.428125 -3.86328125 5.90625 C-7 7 -7 7 -10 7 C-9.67 6.01 -9.34 5.02 -9 4 C-4.545 3.505 -4.545 3.505 0 3 C0 2.01 0 1.02 0 0 Z " fill="#846245" transform="translate(288,370)"/>
<path d="M0 0 C1.12377697 3.30435084 0.89554742 5.0506862 -0.4375 8.25 C-0.72496094 8.95640625 -1.01242188 9.6628125 -1.30859375 10.390625 C-1.53675781 10.92171875 -1.76492187 11.4528125 -2 12 C-2.66 12 -3.32 12 -4 12 C-4.33 12.66 -4.66 13.32 -5 14 C-6 11 -6 11 -4.78515625 8.30078125 C-4.21667969 7.31464844 -3.64820312 6.32851562 -3.0625 5.3125 C-2.49660156 4.31863281 -1.93070312 3.32476562 -1.34765625 2.30078125 C-0.90292969 1.54152344 -0.45820312 0.78226563 0 0 Z " fill="#8B694B" transform="translate(74,178)"/>
<path d="M0 0 C2.31 1.98 4.62 3.96 7 6 C6.01 6.99 5.02 7.98 4 9 C2.0625 8.3125 2.0625 8.3125 0 7 C-0.93580311 4.12060581 -1.37245106 2.74490212 0 0 Z " fill="#845938" transform="translate(370,126)"/>
<path d="M0 0 C2 3.75 2 3.75 2 6 C3.98 6.66 5.96 7.32 8 8 C7.67 8.66 7.34 9.32 7 10 C4.69 10 2.38 10 0 10 C-1.125 2.25 -1.125 2.25 0 0 Z " fill="#F8E9BE" transform="translate(145,371)"/>
<path d="M0 0 C-4.43076923 5.78461538 -4.43076923 5.78461538 -7.3125 6.875 C-8.1478125 6.936875 -8.1478125 6.936875 -9 7 C-9.33 6.34 -9.66 5.68 -10 5 C-9.34 5 -8.68 5 -8 5 C-8.33 4.01 -8.66 3.02 -9 2 C-5.5647952 -0.29013653 -4.014669 -0.17842973 0 0 Z " fill="#7A5435" transform="translate(367,347)"/>
<path d="M0 0 C0.66 0.66 1.32 1.32 2 2 C1.96712417 4.72869407 1.43602229 7.2966618 1 10 C0.01 9.67 -0.98 9.34 -2 9 C-2.33 10.32 -2.66 11.64 -3 13 C-4.23593891 9.29218328 -3.5678132 8.32489747 -2.0625 4.8125 C-1.68222656 3.91144531 -1.30195312 3.01039063 -0.91015625 2.08203125 C-0.60980469 1.39496094 -0.30945313 0.70789063 0 0 Z " fill="#866244" transform="translate(67,191)"/>
<path d="M0 0 C0 3 0 3 -1.96875 5.26171875 C-2.8040625 6.06222656 -3.639375 6.86273438 -4.5 7.6875 C-5.3353125 8.49574219 -6.170625 9.30398438 -7.03125 10.13671875 C-7.6809375 10.75160156 -8.330625 11.36648438 -9 12 C-9.6015625 10.12890625 -9.6015625 10.12890625 -10 8 C-7.49249774 4.81740098 -4.49215025 2.98203122 -1 1 C-0.67 0.67 -0.34 0.34 0 0 Z " fill="#F7E2B1" transform="translate(352,318)"/>
<path d="M0 0 C0 0.66 0 1.32 0 2 C-0.61875 2.28875 -1.2375 2.5775 -1.875 2.875 C-4.13325765 3.93720042 -4.13325765 3.93720042 -6 6 C-6.99 6 -7.98 6 -9 6 C-9.33 6.99 -9.66 7.98 -10 9 C-10.99 8.01 -11.98 7.02 -13 6 C-11.21118264 4.99491199 -9.41885304 3.99607264 -7.625 3 C-6.62726563 2.443125 -5.62953125 1.88625 -4.6015625 1.3125 C-2 0 -2 0 0 0 Z " fill="#8E6A4B" transform="translate(163,97)"/>
<path d="M0 0 C-1.26239712 0.86658615 -2.53527501 1.71792059 -3.8125 2.5625 C-4.87404297 3.27599609 -4.87404297 3.27599609 -5.95703125 4.00390625 C-8 5 -8 5 -11 4 C-10.67 2.68 -10.34 1.36 -10 0 C-6.26432828 -0.76411467 -3.65188082 -1.07174763 0 0 Z " fill="#835D3C" transform="translate(325,356)"/>
<path d="M0 0 C2.35716404 2.15454249 3.78966144 4.19719874 5.1875 7.0625 C5.53167969 7.75472656 5.87585938 8.44695312 6.23046875 9.16015625 C7 11 7 11 7 13 C6.34 13 5.68 13 5 13 C4.67 13.99 4.34 14.98 4 16 C2.66666667 10.66666667 1.33333333 5.33333333 0 0 Z " fill="#ECC188" transform="translate(382,163)"/>
<path d="M0 0 C0.66 1.32 1.32 2.64 2 4 C1.38125 4.7425 0.7625 5.485 0.125 6.25 C-1.60437281 8.48801188 -2.86106661 10.43739987 -4 13 C-4.66 13 -5.32 13 -6 13 C-4.58707905 8.1725201 -2.57025846 4.2837641 0 0 Z " fill="#8B684E" transform="translate(137,336)"/>
<path d="M0 0 C1.10844919 3.32534757 0.84454356 5.62182575 0 9 C-1.65 9 -3.3 9 -5 9 C-3.7508258 5.54074837 -2.32472205 2.85306797 0 0 Z " fill="#876342" transform="translate(163,293)"/>
<path d="M0 0 C1 3 1 3 0 6 C-0.66 6 -1.32 6 -2 6 C-2 7.32 -2 8.64 -2 10 C-3.65 10.66 -5.3 11.32 -7 12 C-5.44298069 7.32894208 -2.91552627 3.91294315 0 0 Z " fill="#FBEABD" transform="translate(303,150)"/>
<path d="M0 0 C1.27609323 0.90933009 2.54565553 1.82782853 3.8125 2.75 C4.87404297 3.51570313 4.87404297 3.51570313 5.95703125 4.296875 C8.02977691 6.02482358 9.47375854 7.78526476 11 10 C6.03297196 8.72936492 3.28106063 6.95657311 0 3 C0 2.01 0 1.02 0 0 Z " fill="#8F6E4E" transform="translate(359,116)"/>
<path d="M0 0 C0.99 0.66 1.98 1.32 3 2 C3.1875 4.625 3.1875 4.625 3 7 C2.34 7 1.68 7 1 7 C0.67 7.66 0.34 8.32 0 9 C-0.66 8.67 -1.32 8.34 -2 8 C-2 4.23312136 -1.76462683 3.08809695 0 0 Z " fill="#7C4822" transform="translate(134,373)"/>
<path d="M0 0 C0.928125 0.0825 1.85625 0.165 2.8125 0.25 C1.8125 3.25 1.8125 3.25 -0.0625 4.375 C-1.74455727 5.06761182 -3.46177551 5.6747585 -5.1875 6.25 C-5.5175 5.59 -5.8475 4.93 -6.1875 4.25 C-4.36434338 1.00883268 -3.82500054 0.30000004 0 0 Z " fill="#7B532B" transform="translate(152.1875,364.75)"/>
<path d="M0 0 C0.84119973 2.39957614 1.11193544 3.64922558 0.328125 6.10546875 C-0.02765625 6.79253906 -0.3834375 7.47960937 -0.75 8.1875 C-1.26820313 9.22970703 -1.26820313 9.22970703 -1.796875 10.29296875 C-3 12 -3 12 -6 13 C-4.58707905 8.1725201 -2.57025846 4.2837641 0 0 Z " fill="#886649" transform="translate(144,323)"/>
<path d="M0 0 C0.33 0 0.66 0 1 0 C1.42171445 3.58457283 0.98385199 5.02895505 -0.8125 8.25 C-3 11 -3 11 -6 12 C-4.43358249 7.69235185 -2.31663844 3.93828536 0 0 Z " fill="#866447" transform="translate(151,311)"/>
<path d="M0 0 C1.32 1.32 2.64 2.64 4 4 C3.67 4.66 3.34 5.32 3 6 C2.34 5.67 1.68 5.34 1 5 C0.67 5.99 0.34 6.98 0 8 C-3 8 -3 8 -5 7 C-3.35 4.69 -1.7 2.38 0 0 Z " fill="#8C6543" transform="translate(169,284)"/>
<path d="M0 0 C0.33 0 0.66 0 1 0 C1 1.65 1 3.3 1 5 C3.31 5.33 5.62 5.66 8 6 C8.33 6.99 8.66 7.98 9 9 C-0.59453303 6.10933941 -0.59453303 6.10933941 -4 3 C-3.01 2.67 -2.02 2.34 -1 2 C-0.67 1.34 -0.34 0.68 0 0 Z " fill="#865D43" transform="translate(73,231)"/>
<path d="M0 0 C1.65 0 3.3 0 5 0 C5 1.66666667 5 3.33333333 5 5 C0.25 6.125 0.25 6.125 -2 5 C-1.34 3.35 -0.68 1.7 0 0 Z " fill="#7C625D" transform="translate(385,394)"/>
<path d="M0 0 C2.64752004 2.57784846 4.94432065 4.91648098 7 8 C6.01 8.495 6.01 8.495 5 9 C2.5 6.75 2.5 6.75 0 4 C0 2.68 0 1.36 0 0 Z " fill="#88726B" transform="translate(263,389)"/>
<path d="M0 0 C1.32 0 2.64 0 4 0 C2.44499019 3.81684226 -0.03595495 6.19195732 -3 9 C-3 7.35 -3 5.7 -3 4 C-2.34 3.67 -1.68 3.34 -1 3 C-0.67 2.01 -0.34 1.02 0 0 Z " fill="#856145" transform="translate(379,329)"/>
<path d="M0 0 C0.99 0.99 1.98 1.98 3 3 C2.73904456 5.67479327 2.1995243 7.60095141 1 10 C1.66 10.33 2.32 10.66 3 11 C1.02 11.99 1.02 11.99 -1 13 C-0.67 8.71 -0.34 4.42 0 0 Z " fill="#ECD29E" transform="translate(326,123)"/>
<path d="M0 0 C3.16023369 0.70227415 6.11280405 1.51738586 9 3 C9.8125 5.125 9.8125 5.125 10 7 C6.433255 7 5.89456323 6.36308045 3.3125 4.0625 C2.68988281 3.51722656 2.06726563 2.97195312 1.42578125 2.41015625 C0.95527344 1.94480469 0.48476563 1.47945313 0 1 C0 0.67 0 0.34 0 0 Z " fill="#855424" transform="translate(348,120)"/>
<path d="M0 0 C0.33 0.99 0.66 1.98 1 3 C-2.65333143 5.63379708 -5.48521602 7.46884894 -10 8 C-6.88983545 4.71211176 -3.98381075 2.16264012 0 0 Z " fill="#8C6B4F" transform="translate(136,112)"/>
<path d="M0 0 C0.66 0.33 1.32 0.66 2 1 C1.67 1.99 1.34 2.98 1 4 C0.34 4 -0.32 4 -1 4 C-1.33 5.32 -1.66 6.64 -2 8 C-3.37562854 6.71034824 -4.70766393 5.37310707 -6 4 C-6 3.34 -6 2.68 -6 2 C-4.35 2 -2.7 2 -1 2 C-0.67 1.34 -0.34 0.68 0 0 Z " fill="#8A746F" transform="translate(276,405)"/>
<path d="M0 0 C0 1.65 0 3.3 0 5 C-3.3 4.01 -6.6 3.02 -10 2 C-10 1.67 -10 1.34 -10 1 C-6.59437148 0.22157062 -3.49234244 -0.09978121 0 0 Z " fill="#89633C" transform="translate(256,370)"/>
<path d="M0 0 C1.32 0 2.64 0 4 0 C4 0.66 4 1.32 4 2 C3.01 2 2.02 2 1 2 C1.99 3.65 2.98 5.3 4 7 C3.01 7.66 2.02 8.32 1 9 C0.01 6.69 -0.98 4.38 -2 2 C-1.34 1.34 -0.68 0.68 0 0 Z " fill="#86572B" transform="translate(382,155)"/>
<path d="M0 0 C2.97 0.495 2.97 0.495 6 1 C4.25 3.5 4.25 3.5 2 6 C0.68 6 -0.64 6 -2 6 C-2.33 5.01 -2.66 4.02 -3 3 C-2.01 2.67 -1.02 2.34 0 2 C0 1.34 0 0.68 0 0 Z " fill="#8A5E3A" transform="translate(291,80)"/>
<path d="M0 0 C0.89847656 0.07863281 1.79695313 0.15726563 2.72265625 0.23828125 C3.81900391 0.46064453 3.81900391 0.46064453 4.9375 0.6875 C5.2675 1.3475 5.5975 2.0075 5.9375 2.6875 C4.52126784 2.74197047 3.10441809 2.78050508 1.6875 2.8125 C0.89859375 2.83570313 0.1096875 2.85890625 -0.703125 2.8828125 C-3.26981941 2.6703378 -4.8541067 1.97404105 -7.0625 0.6875 C-4.47149174 -0.60800413 -2.86825631 -0.27650816 0 0 Z " fill="#F7E4B2" transform="translate(117.0625,235.3125)"/>
<path d="M0 0 C0.33 0 0.66 0 1 0 C1.09796875 0.68707031 1.1959375 1.37414062 1.296875 2.08203125 C1.52117188 3.43361328 1.52117188 3.43361328 1.75 4.8125 C1.88921875 5.70582031 2.0284375 6.59914062 2.171875 7.51953125 C3.168841 10.50572658 4.3582435 11.38380344 7 13 C6.01 13 5.02 13 4 13 C3.67 13.66 3.34 14.32 3 15 C-0.16727335 9.8531808 -0.35050464 5.841744 0 0 Z " fill="#8D6E55" transform="translate(59,213)"/>
<path d="M0 0 C1.134375 0.020625 2.26875 0.04125 3.4375 0.0625 C3.7675 1.7125 4.0975 3.3625 4.4375 5.0625 C3.7775 4.0725 3.1175 3.0825 2.4375 2.0625 C1.1175 2.0625 -0.2025 2.0625 -1.5625 2.0625 C-1.5625 3.7125 -1.5625 5.3625 -1.5625 7.0625 C-2.5525 6.7325 -3.5425 6.4025 -4.5625 6.0625 C-4.605221 4.39638095 -4.60313832 2.72867115 -4.5625 1.0625 C-3.5625 0.0625 -3.5625 0.0625 0 0 Z " fill="#FCE4BB" transform="translate(267.5625,203.9375)"/>
<path d="M0 0 C-0.33 1.32 -0.66 2.64 -1 4 C-3.31 4.33 -5.62 4.66 -8 5 C-8.33 4.34 -8.66 3.68 -9 3 C-2.25 0 -2.25 0 0 0 Z " fill="#866040" transform="translate(172,93)"/>
<path d="M0 0 C1.65 0 3.3 0 5 0 C4.835 0.763125 4.67 1.52625 4.5 2.3125 C3.90854604 5.03596236 3.90854604 5.03596236 4 8 C2.35 6.02 0.7 4.04 -1 2 C-0.67 1.34 -0.34 0.68 0 0 Z " fill="#83624E" transform="translate(252,383)"/>
<path d="M0 0 C1.2065625 0.0309375 1.2065625 0.0309375 2.4375 0.0625 C2.1075 1.7125 1.7775 3.3625 1.4375 5.0625 C0.7775 5.0625 0.1175 5.0625 -0.5625 5.0625 C-0.5625 4.4025 -0.5625 3.7425 -0.5625 3.0625 C-2.2125 3.3925 -3.8625 3.7225 -5.5625 4.0625 C-2.90134298 0.07076446 -2.90134298 0.07076446 0 0 Z " fill="#7B6259" transform="translate(397.5625,376.9375)"/>
<path d="M0 0 C3.99500618 1.3697164 6.80009492 3.25722422 10 6 C6.67179946 6.22692276 4.58198664 6.32162419 1.625 4.6875 C0 3 0 3 0 0 Z " fill="#886449" transform="translate(331,97)"/>
<path d="M0 0 C2.97 0.495 2.97 0.495 6 1 C6 2.98 6 4.96 6 7 C3.69 5.35 1.38 3.7 -1 2 C-0.67 1.34 -0.34 0.68 0 0 Z " fill="#87736D" transform="translate(262,398)"/>
<path d="M0 0 C1.9375 0.375 1.9375 0.375 4 1 C4.33 1.66 4.66 2.32 5 3 C6.66500443 3.34153937 8.33178677 3.67449498 10 4 C10.66 4.66 11.32 5.32 12 6 C9 7 9 7 6.375 6.25 C4 5 4 5 3 2 C2.01 1.67 1.02 1.34 0 1 C0 0.67 0 0.34 0 0 Z " fill="#7F6052" transform="translate(256,392)"/>
<path d="M0 0 C0.33 0.66 0.66 1.32 1 2 C2.32 2 3.64 2 5 2 C5.33 1.34 5.66 0.68 6 0 C5.67 2.31 5.34 4.62 5 7 C3.02 5.35 1.04 3.7 -1 2 C-0.67 1.34 -0.34 0.68 0 0 Z " fill="#8E7B76" transform="translate(347,350)"/>
<path d="M0 0 C5.875 4.625 5.875 4.625 7 8 C6.01 8.33 5.02 8.66 4 9 C3.67 7.35 3.34 5.7 3 4 C2.01 4 1.02 4 0 4 C0 2.68 0 1.36 0 0 Z " fill="#89684A" transform="translate(377,133)"/>
<path d="M0 0 C0.66 0.66 1.32 1.32 2 2 C1.34 3.32 0.68 4.64 0 6 C-1.32 6 -2.64 6 -4 6 C-6.20067421 6.93283296 -6.20067421 6.93283296 -8 8 C-5.58443874 4.80800833 -3.31996462 2.25283313 0 0 Z " fill="#E7C188" transform="translate(124,133)"/>
<path d="M0 0 C0.99 0.33 1.98 0.66 3 1 C2.01 2.485 2.01 2.485 1 4 C1.33 4.66 1.66 5.32 2 6 C0.68 6.33 -0.64 6.66 -2 7 C-2.66 5.68 -3.32 4.36 -4 3 C-3.01 2.67 -2.02 2.34 -1 2 C-0.67 1.34 -0.34 0.68 0 0 Z " fill="#7B605B" transform="translate(339,434)"/>
<path d="M0 0 C1.32 0 2.64 0 4 0 C4 1.65 4 3.3 4 5 C3.34 5 2.68 5 2 5 C2 5.66 2 6.32 2 7 C1.01 6.67 0.02 6.34 -1 6 C-0.34 5.34 0.32 4.68 1 4 C0.6814823 1.89179203 0.6814823 1.89179203 0 0 Z " fill="#86542B" transform="translate(129,240)"/>
<path d="M0 0 C2.52588702 2.36292656 3.88820837 3.66462511 5 7 C4.01 7.33 3.02 7.66 2 8 C1.566875 7.0409375 1.566875 7.0409375 1.125 6.0625 C0.17176549 3.84793921 0.17176549 3.84793921 -2 3 C-2 2.34 -2 1.68 -2 1 C-1.34 0.67 -0.68 0.34 0 0 Z " fill="#8B6447" transform="translate(390,148)"/>
<path d="M0 0 C-0.33 1.65 -0.66 3.3 -1 5 C-3.96175123 4.38722388 -5.38058783 3.74627478 -8 2 C-5.09399739 0.74335022 -3.20395416 0 0 0 Z " fill="#8E6845" transform="translate(180,90)"/>
<path d="M0 0 C-0.33 1.32 -0.66 2.64 -1 4 C-3.64 3.67 -6.28 3.34 -9 3 C-5.73209435 0.82139623 -3.91954654 0 0 0 Z " fill="#82562D" transform="translate(287,362)"/>
<path d="M0 0 C0.99 0.33 1.98 0.66 3 1 C2.19185349 2.33597652 1.37836819 3.668725 0.5625 5 C0.11003906 5.7425 -0.34242188 6.485 -0.80859375 7.25 C-1.20175781 7.8275 -1.59492188 8.405 -2 9 C-2.33 9 -2.66 9 -3 9 C-3 7.35 -3 5.7 -3 4 C-2.34 4 -1.68 4 -1 4 C-0.67 2.68 -0.34 1.36 0 0 Z " fill="#836246" transform="translate(397,304)"/>
<path d="M0 0 C2.475 0.99 2.475 0.99 5 2 C4.34 3.65 3.68 5.3 3 7 C1.5 5.75 1.5 5.75 0 4 C0 2.68 0 1.36 0 0 Z " fill="#794922" transform="translate(177,273)"/>
<path d="M0 0 C0.33 0 0.66 0 1 0 C1 3.3 1 6.6 1 10 C-0.32 10 -1.64 10 -3 10 C-3 9.01 -3 8.02 -3 7 C-2.01 7 -1.02 7 0 7 C0 4.69 0 2.38 0 0 Z " fill="#C59564" transform="translate(408,214)"/>
<path d="M0 0 C0.99 0 1.98 0 3 0 C3.33 2.31 3.66 4.62 4 7 C3.01 6.67 2.02 6.34 1 6 C-0.1875 3.4375 -0.1875 3.4375 -1 1 C-0.67 0.67 -0.34 0.34 0 0 Z " fill="#7B491C" transform="translate(216,217)"/>
<path d="M0 0 C0.33 0 0.66 0 1 0 C2.25 6.625 2.25 6.625 0 10 C-0.66 9.67 -1.32 9.34 -2 9 C-1.34 6.03 -0.68 3.06 0 0 Z " fill="#886042" transform="translate(62,203)"/>
<path d="M0 0 C1.32 0.33 2.64 0.66 4 1 C2.02 3.97 2.02 3.97 0 7 C-0.66 6.01 -1.32 5.02 -2 4 C-1.34 2.68 -0.68 1.36 0 0 Z " fill="#EDD49C" transform="translate(292,161)"/>
<path d="M0 0 C0 3.66184524 -0.919642 5.02806 -3 8 C-5.1875 9.8125 -5.1875 9.8125 -7 11 C-5.5140084 6.40693504 -3.14985318 3.56430755 0 0 Z " fill="#91622F" transform="translate(289,119)"/>
<path d="M0 0 C0.99 0.33 1.98 0.66 3 1 C3.6875 3.0625 3.6875 3.0625 4 5 C2.02 5.99 2.02 5.99 0 7 C-0.38133299 5.0085944 -0.71325582 3.00720923 -1 1 C-0.67 0.67 -0.34 0.34 0 0 Z " fill="#825327" transform="translate(152,107)"/>
<path d="M0 0 C0 0.99 0 1.98 0 3 C-3.3 2.67 -6.6 2.34 -10 2 C-10 1.67 -10 1.34 -10 1 C-3.71428571 -1.42857143 -3.71428571 -1.42857143 0 0 Z " fill="#8B5C31" transform="translate(285,86)"/>
<path d="M0 0 C1.32 1.65 2.64 3.3 4 5 C3.01 5.33 2.02 5.66 1 6 C0.67 5.67 0.34 5.34 0 5 C-0.66 5.66 -1.32 6.32 -2 7 C-2.33 6.34 -2.66 5.68 -3 5 C-1.5625 2.375 -1.5625 2.375 0 0 Z " fill="#89726B" transform="translate(258,382)"/>
<path d="M0 0 C2.05078125 0.03255208 4.1015625 0.06510417 6.15234375 0.09765625 C4.14109225 1.103282 2.13722045 2.10453048 0.08984375 3.03515625 C-1.94371826 4.15033542 -3.29460293 5.3892976 -4.84765625 7.09765625 C-2.62675581 0.13883487 -2.62675581 0.13883487 0 0 Z " fill="#ECD1A0" transform="translate(141.84765625,349.90234375)"/>
<path d="M0 0 C1.65 0 3.3 0 5 0 C5.33 1.65 5.66 3.3 6 5 C5.01 5.66 4.02 6.32 3 7 C3.66 5.35 4.32 3.7 5 2 C3.35 2.33 1.7 2.66 0 3 C0 2.01 0 1.02 0 0 Z " fill="#8B5933" transform="translate(395,229)"/>
<path d="M0 0 C0.66 0.33 1.32 0.66 2 1 C1.34 2.98 0.68 4.96 0 7 C-1.32 6.67 -2.64 6.34 -4 6 C-2.68 4.02 -1.36 2.04 0 0 Z " fill="#E9C186" transform="translate(221,222)"/>
<path d="M0 0 C0.99 0.33 1.98 0.66 3 1 C3 1.99 3 2.98 3 4 C3.66 4 4.32 4 5 4 C5 4.66 5 5.32 5 6 C2.83125748 5.49396008 1.00032373 5.00016187 -1 4 C-0.67 2.68 -0.34 1.36 0 0 Z " fill="#84522D" transform="translate(399,223)"/>
<path d="M0 0 C1.32 0.33 2.64 0.66 4 1 C4 1.66 4 2.32 4 3 C2.35 3.66 0.7 4.32 -1 5 C-1.33 4.34 -1.66 3.68 -2 3 C-1.34 2.01 -0.68 1.02 0 0 Z " fill="#7C481C" transform="translate(128,121)"/>
<path d="M0 0 C0.33 0.66 0.66 1.32 1 2 C-0.98 2.33 -2.96 2.66 -5 3 C-5 3.66 -5 4.32 -5 5 C-6.65 5.33 -8.3 5.66 -10 6 C-10 5.34 -10 4.68 -10 4 C-6.71536341 1.81024227 -3.79303725 1.00193437 0 0 Z " fill="#EFD39C" transform="translate(321,336)"/>
<path d="M0 0 C0.66 0.33 1.32 0.66 2 1 C0.98379995 4.04860014 0.22608429 4.86666922 -2 7 C-2.33 7.66 -2.66 8.32 -3 9 C-3.66 9 -4.32 9 -5 9 C-3.7508258 5.54074837 -2.32472205 2.85306797 0 0 Z " fill="#906F54" transform="translate(157,302)"/>
<path d="M0 0 C0.66 1.32 1.32 2.64 2 4 C0.35 5.65 -1.3 7.3 -3 9 C-2.01 6.03 -1.02 3.06 0 0 Z " fill="#8A5124" transform="translate(403,272)"/>
<path d="M0 0 C0.66 0.66 1.32 1.32 2 2 C-0.12780579 4.34058637 -2.11562221 5.70700306 -5 7 C-4.75 4.625 -4.75 4.625 -4 2 C-1.9375 0.6875 -1.9375 0.6875 0 0 Z " fill="#7A4820" transform="translate(185,265)"/>
<path d="M0 0 C3.465 1.98 3.465 1.98 7 4 C7 4.33 7 4.66 7 5 C4.36 4.67 1.72 4.34 -1 4 C-0.67 2.68 -0.34 1.36 0 0 Z " fill="#896345" transform="translate(341,103)"/>
<path d="M0 0 C0.66 0.66 1.32 1.32 2 2 C0.12050295 5.57104439 -1.17053157 7.54744301 -5 9 C-3.50163895 5.88801935 -1.80066242 2.9465385 0 0 Z " fill="#C89561" transform="translate(377,303)"/>
<path d="M0 0 C0.99 0 1.98 0 3 0 C3.33 0.99 3.66 1.98 4 3 C2.68 4.32 1.36 5.64 0 7 C0 4.69 0 2.38 0 0 Z " fill="#835528" transform="translate(197,249)"/>
<path d="M0 0 C2.475 0.99 2.475 0.99 5 2 C4.67 3.32 4.34 4.64 4 6 C2.02 4.68 0.04 3.36 -2 2 C-1.34 1.34 -0.68 0.68 0 0 Z " fill="#8D6344" transform="translate(65,228)"/>
<path d="M0 0 C1.41377341 2.63904371 2.37240135 5.07120629 3 8 C2.01 7.67 1.02 7.34 0 7 C0 6.01 0 5.02 0 4 C-0.66 4 -1.32 4 -2 4 C-2 3.01 -2 2.02 -2 1 C-1.34 0.67 -0.68 0.34 0 0 Z " fill="#F5E8C7" transform="translate(69,209)"/>
<path d="M0 0 C1.0625 1.8125 1.0625 1.8125 2 4 C1.67 4.99 1.34 5.98 1 7 C-0.32 6.67 -1.64 6.34 -3 6 C-2.01 4.02 -1.02 2.04 0 0 Z " fill="#FBEDBE" transform="translate(311,137)"/>
<path d="M0 0 C-0.33 1.32 -0.66 2.64 -1 4 C-3.31 4.33 -5.62 4.66 -8 5 C-3.22727273 0 -3.22727273 0 0 0 Z " fill="#89664B" transform="translate(150,104)"/>
<path d="M0 0 C1.65 0.99 3.3 1.98 5 3 C3.125 4.0625 3.125 4.0625 1 5 C0.34 4.67 -0.32 4.34 -1 4 C-0.67 2.68 -0.34 1.36 0 0 Z " fill="#8B7772" transform="translate(292,420)"/>
<path d="M0 0 C0.99 0.33 1.98 0.66 3 1 C3 1.66 3 2.32 3 3 C0.69 3.66 -1.62 4.32 -4 5 C-2.68 3.35 -1.36 1.7 0 0 Z " fill="#85726F" transform="translate(355,418)"/>
<path d="M0 0 C1.9375 0.8125 1.9375 0.8125 4 2 C4.33 2.99 4.66 3.98 5 5 C3.35 4.67 1.7 4.34 0 4 C0 2.68 0 1.36 0 0 Z " fill="#7B625B" transform="translate(393,388)"/>
<path d="M0 0 C0.99 0.33 1.98 0.66 3 1 C3 1.66 3 2.32 3 3 C0.69 3.66 -1.62 4.32 -4 5 C-2.68 3.35 -1.36 1.7 0 0 Z " fill="#7A6662" transform="translate(362,357)"/>
<path d="M0 0 C3 1.1875 3 1.1875 5 3.1875 C1.28111761 2.68037967 -1.73454239 2.07141785 -5 0.1875 C-3 -0.8125 -3 -0.8125 0 0 Z " fill="#EED39F" transform="translate(183,353.8125)"/>
<path d="M0 0 C0.66 0.66 1.32 1.32 2 2 C1.625 4.625 1.625 4.625 1 7 C-1 5.625 -1 5.625 -3 4 C-3 3.34 -3 2.68 -3 2 C-2.01 2 -1.02 2 0 2 C0 1.34 0 0.68 0 0 Z " fill="#927D77" transform="translate(345,344)"/>
<path d="M0 0 C0.33 0.66 0.66 1.32 1 2 C0.01 3.32 -0.98 4.64 -2 6 C-2.99 5.34 -3.98 4.68 -5 4 C-3.35 2.68 -1.7 1.36 0 0 Z M-7 5 C-5 6 -5 6 -5 6 Z " fill="#7E552D" transform="translate(334,336)"/>
<path d="M0 0 C2.31 0.33 4.62 0.66 7 1 C6.67 1.99 6.34 2.98 6 4 C4.35 4 2.7 4 1 4 C0.67 2.68 0.34 1.36 0 0 Z " fill="#7A522A" transform="translate(86,231)"/>
<path d="M0 0 C1.65 0 3.3 0 5 0 C5 1.98 5 3.96 5 6 C3.0625 5.25 3.0625 5.25 1 4 C0.25 1.875 0.25 1.875 0 0 Z " fill="#DDB276" transform="translate(376,159)"/>
</svg>
